M48
;DRILL file {KiCad (2016-12-22 revision d365dc590)-master} date Wed Dec 28 11:12:33 2016
;FORMAT={-:-/ absolute / inch / decimal}
FMAT,2
INCH,TZ
T1C0.012
T2C0.032
%
G90
G05
M72
T1
X3.86Y-3.83
X5.364Y-4.242
X5.409Y-4.242
X5.4741Y-4.1859
X5.52Y-4.157
X5.574Y-4.215
X5.82Y-3.94
X5.82Y-4.
X5.82Y-4.06
X5.82Y-4.12
X5.82Y-4.18
X5.95Y-3.94
X5.95Y-4.
X5.95Y-4.06
X5.95Y-4.12
X5.95Y-4.18
X7.095Y-4.237
X7.154Y-4.267
X7.325Y-4.32
X7.325Y-4.38
X7.325Y-4.44
X7.325Y-4.5
X7.325Y-4.555
T2
X3.81Y-3.94
X3.81Y-4.04
X3.81Y-4.14
X3.81Y-4.24
X4.11Y-3.94
X4.11Y-4.04
X4.11Y-4.14
X4.11Y-4.24
X4.32Y-3.72
X4.32Y-4.32
X4.42Y-3.72
X4.42Y-4.32
X4.52Y-3.72
X4.52Y-4.32
X4.62Y-3.72
X4.62Y-4.32
X4.72Y-3.72
X4.72Y-4.32
X4.82Y-3.72
X4.82Y-4.32
X4.92Y-3.72
X4.92Y-4.32
X5.02Y-3.72
X5.02Y-4.32
X5.12Y-3.72
X5.12Y-4.32
X5.22Y-3.72
X5.22Y-4.32
X5.32Y-3.72
X5.32Y-4.32
X5.42Y-3.72
X5.42Y-4.32
X5.52Y-3.72
X5.52Y-4.32
X5.62Y-3.72
X5.62Y-4.32
X5.95Y-3.73
X5.95Y-4.33
X6.05Y-3.73
X6.05Y-4.33
X6.15Y-3.73
X6.15Y-4.33
X6.25Y-3.73
X6.25Y-4.33
X6.35Y-3.73
X6.35Y-4.33
X6.45Y-3.73
X6.45Y-4.33
X6.55Y-3.73
X6.55Y-4.33
X6.65Y-3.73
X6.65Y-4.33
X6.75Y-3.73
X6.75Y-4.33
X6.85Y-3.73
X6.85Y-4.33
X6.95Y-3.73
X6.95Y-4.33
X7.05Y-3.73
X7.05Y-4.33
X7.15Y-3.73
X7.15Y-4.33
X7.25Y-3.73
X7.25Y-4.33
T0
M30
