G04 #@! TF.GenerationSoftware,KiCad,Pcbnew,(2016-12-22 revision d365dc590)-master*
G04 #@! TF.CreationDate,2016-12-28T11:12:27+01:00*
G04 #@! TF.ProjectId,mojo-nes,6D6F6A6F2D6E65732E6B696361645F70,rev?*
G04 #@! TF.FileFunction,Copper,L2,Bot,Signal*
G04 #@! TF.FilePolarity,Positive*
%FSLAX46Y46*%
G04 Gerber Fmt 4.6, Leading zero omitted, Abs format (unit mm)*
G04 Created by KiCad (PCBNEW (2016-12-22 revision d365dc590)-master) date Wed Dec 28 11:12:27 2016*
%MOMM*%
%LPD*%
G01*
G04 APERTURE LIST*
%ADD10C,0.100000*%
%ADD11R,1.397000X1.397000*%
%ADD12C,1.397000*%
%ADD13R,2.000000X14.000000*%
%ADD14C,0.889000*%
%ADD15C,0.762000*%
%ADD16C,0.762000*%
%ADD17C,0.381000*%
%ADD18C,0.203200*%
G04 APERTURE END LIST*
D10*
D11*
X184150000Y-94742000D03*
D12*
X181610000Y-94742000D03*
X179070000Y-94742000D03*
X176530000Y-94742000D03*
X173990000Y-94742000D03*
X171450000Y-94742000D03*
X168910000Y-94742000D03*
X166370000Y-94742000D03*
X163830000Y-94742000D03*
X161290000Y-94742000D03*
X158750000Y-94742000D03*
X156210000Y-94742000D03*
X153670000Y-94742000D03*
X151130000Y-94742000D03*
X151130000Y-109982000D03*
X153670000Y-109982000D03*
X156210000Y-109982000D03*
X158750000Y-109982000D03*
X161290000Y-109982000D03*
X163830000Y-109982000D03*
X166370000Y-109982000D03*
X168910000Y-109982000D03*
X171450000Y-109982000D03*
X173990000Y-109982000D03*
X176530000Y-109982000D03*
X179070000Y-109982000D03*
X181610000Y-109982000D03*
X184150000Y-109982000D03*
D11*
X142748000Y-94488000D03*
D12*
X140208000Y-94488000D03*
X137668000Y-94488000D03*
X135128000Y-94488000D03*
X132588000Y-94488000D03*
X130048000Y-94488000D03*
X127508000Y-94488000D03*
X124968000Y-94488000D03*
X122428000Y-94488000D03*
X119888000Y-94488000D03*
X117348000Y-94488000D03*
X114808000Y-94488000D03*
X112268000Y-94488000D03*
X109728000Y-94488000D03*
X109728000Y-109728000D03*
X112268000Y-109728000D03*
X114808000Y-109728000D03*
X117348000Y-109728000D03*
X119888000Y-109728000D03*
X122428000Y-109728000D03*
X124968000Y-109728000D03*
X127508000Y-109728000D03*
X130048000Y-109728000D03*
X132588000Y-109728000D03*
X135128000Y-109728000D03*
X137668000Y-109728000D03*
X140208000Y-109728000D03*
X142748000Y-109728000D03*
D11*
X96774000Y-100076000D03*
D12*
X96774000Y-102616000D03*
X96774000Y-105156000D03*
X96774000Y-107696000D03*
X104394000Y-107696000D03*
X104394000Y-105156000D03*
X104394000Y-102616000D03*
X104394000Y-100076000D03*
D13*
X185990000Y-124460000D03*
X183490000Y-124460000D03*
X180990000Y-124460000D03*
X178490000Y-124460000D03*
X175990000Y-124460000D03*
X173490000Y-124460000D03*
X170990000Y-124460000D03*
X168490000Y-124460000D03*
X165990000Y-124460000D03*
X163490000Y-124460000D03*
X160990000Y-124460000D03*
X158490000Y-124460000D03*
X155990000Y-124460000D03*
X153490000Y-124460000D03*
X150990000Y-124460000D03*
X148490000Y-124460000D03*
X145990000Y-124460000D03*
X143490000Y-124460000D03*
X140990000Y-124460000D03*
X138490000Y-124460000D03*
X135990000Y-124460000D03*
X133490000Y-124460000D03*
X130990000Y-124460000D03*
X128490000Y-124460000D03*
X125990000Y-124460000D03*
X123490000Y-124460000D03*
X120990000Y-124460000D03*
X118490000Y-124460000D03*
X115990000Y-124460000D03*
X113490000Y-124460000D03*
X110990000Y-124460000D03*
X108490000Y-124460000D03*
X105990000Y-124460000D03*
X103490000Y-124460000D03*
X100990000Y-124460000D03*
X98490000Y-124460000D03*
D14*
X186055000Y-109728000D03*
X186055000Y-111252000D03*
X186055000Y-114300000D03*
X186055000Y-115697000D03*
X186055000Y-112776000D03*
D15*
X98044000Y-97282000D03*
X147828000Y-106172000D03*
X147828000Y-104648000D03*
X147828000Y-103124000D03*
X147828000Y-101600000D03*
X147828000Y-100076000D03*
X151130000Y-100076000D03*
X151130000Y-101600000D03*
X151130000Y-103124000D03*
X151130000Y-104648000D03*
X151130000Y-106172000D03*
X181711600Y-108381800D03*
X180213000Y-107619800D03*
X141579600Y-107061000D03*
X137388600Y-107746820D03*
X136245600Y-107746820D03*
X139042800Y-106321842D03*
X140208000Y-105587800D03*
D16*
X98490000Y-124680000D02*
X98490000Y-109412000D01*
X98490000Y-109412000D02*
X96774000Y-107696000D01*
D17*
X147828000Y-106264458D02*
X147828000Y-106172000D01*
X140208000Y-109728000D02*
X141300201Y-110820201D01*
X141300201Y-110820201D02*
X143718614Y-110820201D01*
X143718614Y-110820201D02*
X147828000Y-106710815D01*
X147828000Y-106710815D02*
X147828000Y-106172000D01*
X147828000Y-104648000D02*
X147828000Y-103124000D01*
X147828000Y-101600000D02*
X147828000Y-100076000D01*
X151130000Y-100076000D02*
X151130000Y-101600000D01*
X151130000Y-103124000D02*
X151130000Y-104648000D01*
X160020000Y-106172000D02*
X163830000Y-109982000D01*
X151130000Y-106172000D02*
X160020000Y-106172000D01*
D18*
X171450000Y-109982000D02*
X172437828Y-109982000D01*
X172437828Y-109982000D02*
X174038028Y-108381800D01*
X174038028Y-108381800D02*
X181172785Y-108381800D01*
X181172785Y-108381800D02*
X181711600Y-108381800D01*
X166370000Y-109982000D02*
X167425114Y-109982000D01*
X167425114Y-109982000D02*
X168428415Y-110985301D01*
X168428415Y-110985301D02*
X169481499Y-110985301D01*
X172327314Y-107619800D02*
X179674185Y-107619800D01*
X169481499Y-110985301D02*
X170230800Y-110236000D01*
X170230800Y-110236000D02*
X170230800Y-109716314D01*
X170230800Y-109716314D02*
X172327314Y-107619800D01*
X179674185Y-107619800D02*
X180213000Y-107619800D01*
X127508000Y-109728000D02*
X130175000Y-107061000D01*
X130175000Y-107061000D02*
X138710414Y-107061000D01*
X138710414Y-107061000D02*
X141579600Y-107061000D01*
X181610000Y-111963200D02*
X183146699Y-110426501D01*
X183146699Y-110426501D02*
X183146699Y-96278699D01*
X183146699Y-96278699D02*
X182308499Y-95440499D01*
X182308499Y-95440499D02*
X181610000Y-94742000D01*
X180990000Y-117204560D02*
X180990000Y-124460000D01*
X181610000Y-116584560D02*
X180990000Y-117204560D01*
X181610000Y-116584560D02*
X181610000Y-111963200D01*
X178490000Y-117103660D02*
X178490000Y-124460000D01*
X179070000Y-116523660D02*
X178490000Y-117103660D01*
X179070000Y-116523660D02*
X179070000Y-109982000D01*
X180606699Y-108978699D02*
X180911501Y-109283501D01*
X176530000Y-112420400D02*
X178066699Y-110883701D01*
X178066699Y-110883701D02*
X178066699Y-109500415D01*
X178066699Y-109500415D02*
X178588415Y-108978699D01*
X180911501Y-109283501D02*
X181610000Y-109982000D01*
X178588415Y-108978699D02*
X180606699Y-108978699D01*
X175990000Y-117138340D02*
X175990000Y-124460000D01*
X176530000Y-116598340D02*
X175990000Y-117138340D01*
X176530000Y-116598340D02*
X176530000Y-112420400D01*
X168224180Y-111429780D02*
X162737780Y-111429780D01*
X162737780Y-111429780D02*
X161988499Y-110680499D01*
X161988499Y-110680499D02*
X161290000Y-109982000D01*
X173490000Y-116695600D02*
X173490000Y-124460000D01*
X172303440Y-115509040D02*
X173490000Y-116695600D01*
X172303440Y-115509040D02*
X168224180Y-111429780D01*
X165861990Y-111836190D02*
X161592018Y-111836190D01*
X161592018Y-111836190D02*
X159737828Y-109982000D01*
X159737828Y-109982000D02*
X158750000Y-109982000D01*
X170990000Y-116964200D02*
X170990000Y-124460000D01*
X170360340Y-116334540D02*
X170990000Y-116964200D01*
X170360340Y-116334540D02*
X165861990Y-111836190D01*
X163804600Y-112242600D02*
X158470600Y-112242600D01*
X158470600Y-112242600D02*
X156908499Y-110680499D01*
X156908499Y-110680499D02*
X156210000Y-109982000D01*
X168490000Y-116928000D02*
X168490000Y-124460000D01*
X167259000Y-115697000D02*
X168490000Y-116928000D01*
X167259000Y-115697000D02*
X163804600Y-112242600D01*
X156337010Y-112649010D02*
X154368499Y-110680499D01*
X154368499Y-110680499D02*
X153670000Y-109982000D01*
X161721810Y-112649010D02*
X156337010Y-112649010D01*
X165990000Y-116917200D02*
X165990000Y-124460000D01*
X164774880Y-115702080D02*
X165990000Y-116917200D01*
X164774880Y-115702080D02*
X161721810Y-112649010D01*
X159740619Y-113055419D02*
X154203419Y-113055419D01*
X154203419Y-113055419D02*
X151828499Y-110680499D01*
X151828499Y-110680499D02*
X151130000Y-109982000D01*
X163490000Y-116804800D02*
X163490000Y-124460000D01*
X162260280Y-115575080D02*
X163490000Y-116804800D01*
X162260280Y-115575080D02*
X159740619Y-113055419D01*
X150126699Y-110463585D02*
X150126699Y-94260415D01*
X157480029Y-113461829D02*
X153124943Y-113461829D01*
X150648415Y-93738699D02*
X152666699Y-93738699D01*
X152971501Y-94043501D02*
X153670000Y-94742000D01*
X153124943Y-113461829D02*
X150126699Y-110463585D01*
X150126699Y-94260415D02*
X150648415Y-93738699D01*
X152666699Y-93738699D02*
X152971501Y-94043501D01*
X160990000Y-116971800D02*
X160990000Y-124460000D01*
X159423100Y-115404900D02*
X160990000Y-116971800D01*
X159423100Y-115404900D02*
X157480029Y-113461829D01*
X155361439Y-113868239D02*
X152956602Y-113868238D01*
X152956602Y-113868238D02*
X149720289Y-110631925D01*
X149720289Y-110631925D02*
X149720290Y-94092074D01*
X149720290Y-94092074D02*
X150480075Y-93332289D01*
X150480075Y-93332289D02*
X154800289Y-93332289D01*
X154800289Y-93332289D02*
X155511501Y-94043501D01*
X155511501Y-94043501D02*
X156210000Y-94742000D01*
X158490000Y-116996800D02*
X158490000Y-124460000D01*
X156880440Y-115387240D02*
X158490000Y-116996800D01*
X156880440Y-115387240D02*
X155361439Y-113868239D01*
X149313881Y-110807481D02*
X149313881Y-93923733D01*
X156933879Y-92925879D02*
X158051501Y-94043501D01*
X153466848Y-114274648D02*
X152781048Y-114274648D01*
X152781048Y-114274648D02*
X149313881Y-110807481D01*
X149313881Y-93923733D02*
X150311735Y-92925879D01*
X150311735Y-92925879D02*
X156933879Y-92925879D01*
X158051501Y-94043501D02*
X158750000Y-94742000D01*
X155990000Y-116797800D02*
X155990000Y-124460000D01*
X154053540Y-114861340D02*
X155990000Y-116797800D01*
X154053540Y-114861340D02*
X153466848Y-114274648D01*
X168910000Y-106476800D02*
X168910000Y-109982000D01*
X162001200Y-104978200D02*
X167411400Y-104978200D01*
X160286699Y-103263699D02*
X162001200Y-104978200D01*
X150143395Y-92519469D02*
X158545753Y-92519469D01*
X158545753Y-92519469D02*
X160286699Y-94260415D01*
X148907472Y-93755392D02*
X150143395Y-92519469D01*
X160286699Y-94260415D02*
X160286699Y-103263699D01*
X148907471Y-110975821D02*
X148907472Y-93755392D01*
X167411400Y-104978200D02*
X168910000Y-106476800D01*
X153490000Y-115558350D02*
X153490000Y-124460000D01*
X151848465Y-113916815D02*
X153490000Y-115558350D01*
X151848465Y-113916815D02*
X148907471Y-110975821D01*
X133490000Y-117256800D02*
X133836800Y-116910000D01*
X133490000Y-124460000D02*
X133490000Y-117256800D01*
X135990000Y-117210000D02*
X135990000Y-124460000D01*
X135690000Y-116910000D02*
X135990000Y-117210000D01*
X133836800Y-116910000D02*
X135690000Y-116910000D01*
X137007601Y-108127819D02*
X137388600Y-107746820D01*
X136398000Y-108737420D02*
X137007601Y-108127819D01*
X136398000Y-109942886D02*
X136398000Y-108737420D01*
X130990000Y-115350886D02*
X130990000Y-124460000D01*
X131135501Y-115205385D02*
X130990000Y-115350886D01*
X131135501Y-115205385D02*
X136398000Y-109942886D01*
X128490000Y-116366000D02*
X128490000Y-124460000D01*
X128882140Y-115973860D02*
X128490000Y-116366000D01*
X128882140Y-115973860D02*
X135128000Y-109728000D01*
X125990000Y-116326000D02*
X125990000Y-124460000D01*
X126773940Y-115542060D02*
X125990000Y-116326000D01*
X126773940Y-115542060D02*
X132588000Y-109728000D01*
X130048000Y-109728000D02*
X132029180Y-107746820D01*
X132029180Y-107746820D02*
X135706785Y-107746820D01*
X135706785Y-107746820D02*
X136245600Y-107746820D01*
X123490000Y-116286000D02*
X123490000Y-124460000D01*
X124008865Y-115767135D02*
X123490000Y-116286000D01*
X124008865Y-115767135D02*
X130048000Y-109728000D01*
X123490000Y-116286000D02*
X123490000Y-130508642D01*
X128374158Y-106321842D02*
X138503985Y-106321842D01*
X138503985Y-106321842D02*
X139042800Y-106321842D01*
X124968000Y-109728000D02*
X128374158Y-106321842D01*
X120990000Y-113706000D02*
X120990000Y-124460000D01*
X121336525Y-113359475D02*
X120990000Y-113706000D01*
X121336525Y-113359475D02*
X124968000Y-109728000D01*
X127623314Y-105587800D02*
X139669185Y-105587800D01*
X123698000Y-109513114D02*
X127623314Y-105587800D01*
X123698000Y-110423250D02*
X123698000Y-109513114D01*
X139669185Y-105587800D02*
X140208000Y-105587800D01*
X118490000Y-115631250D02*
X118490000Y-124460000D01*
X120306745Y-113814505D02*
X118490000Y-115631250D01*
X120306745Y-113814505D02*
X123698000Y-110423250D01*
X115990000Y-116166000D02*
X115990000Y-124460000D01*
X117114320Y-115041680D02*
X115990000Y-116166000D01*
X117114320Y-115041680D02*
X122428000Y-109728000D01*
X113490000Y-116126000D02*
X113490000Y-124460000D01*
X114259360Y-115356640D02*
X113490000Y-116126000D01*
X114259360Y-115356640D02*
X119888000Y-109728000D01*
X110990000Y-116086000D02*
X110990000Y-124460000D01*
X112288320Y-114787680D02*
X110990000Y-116086000D01*
X112288320Y-114787680D02*
X117348000Y-109728000D01*
X108490000Y-116046000D02*
X108490000Y-124460000D01*
X109565440Y-114970560D02*
X108490000Y-116046000D01*
X109565440Y-114970560D02*
X114808000Y-109728000D01*
X105990000Y-116006000D02*
X105990000Y-124460000D01*
X107624880Y-114371120D02*
X105990000Y-116006000D01*
X107624880Y-114371120D02*
X112268000Y-109728000D01*
X102870000Y-104140000D02*
X104394000Y-102616000D01*
X103490000Y-109896797D02*
X103490000Y-124460000D01*
X102870000Y-109276797D02*
X103490000Y-109896797D01*
X102870000Y-109276797D02*
X102870000Y-104140000D01*
X100990000Y-106832000D02*
X100990000Y-124460000D01*
X99490581Y-105332581D02*
X100990000Y-106832000D01*
X99490581Y-105332581D02*
X96774000Y-102616000D01*
G36*
X190220600Y-98628200D02*
X190228334Y-98667081D01*
X190250358Y-98700042D01*
X190283319Y-98722066D01*
X190322200Y-98729800D01*
X191617600Y-98729800D01*
X191617600Y-116560600D01*
X182016400Y-116560600D01*
X182016400Y-112131536D01*
X183434068Y-110713869D01*
X183445648Y-110696538D01*
X183580934Y-110832061D01*
X183949556Y-110985126D01*
X184348693Y-110985474D01*
X184717581Y-110833052D01*
X185000061Y-110551066D01*
X185153126Y-110182444D01*
X185153474Y-109783307D01*
X185001052Y-109414419D01*
X184719066Y-109131939D01*
X184350444Y-108978874D01*
X183951307Y-108978526D01*
X183582419Y-109130948D01*
X183553099Y-109160217D01*
X183553099Y-96278699D01*
X183522164Y-96123176D01*
X183434067Y-95991331D01*
X182546246Y-95103510D01*
X182613126Y-94942444D01*
X182613474Y-94543307D01*
X182461052Y-94174419D01*
X182330362Y-94043500D01*
X183140729Y-94043500D01*
X183140729Y-95440500D01*
X183164385Y-95559427D01*
X183231752Y-95660248D01*
X183332573Y-95727615D01*
X183451500Y-95751271D01*
X184848500Y-95751271D01*
X184967427Y-95727615D01*
X185068248Y-95660248D01*
X185135615Y-95559427D01*
X185159271Y-95440500D01*
X185159271Y-94043500D01*
X185135615Y-93924573D01*
X185068248Y-93823752D01*
X184967427Y-93756385D01*
X184848500Y-93732729D01*
X183451500Y-93732729D01*
X183332573Y-93756385D01*
X183231752Y-93823752D01*
X183164385Y-93924573D01*
X183140729Y-94043500D01*
X182330362Y-94043500D01*
X182179066Y-93891939D01*
X181810444Y-93738874D01*
X181411307Y-93738526D01*
X181042419Y-93890948D01*
X180759939Y-94172934D01*
X180606874Y-94541556D01*
X180606526Y-94940693D01*
X180758948Y-95309581D01*
X181040934Y-95592061D01*
X181409556Y-95745126D01*
X181808693Y-95745474D01*
X181971477Y-95678213D01*
X182740299Y-96447035D01*
X182740299Y-110258164D01*
X182469053Y-110529410D01*
X182613126Y-110182444D01*
X182613474Y-109783307D01*
X182461052Y-109414419D01*
X182179066Y-109131939D01*
X181936130Y-109031063D01*
X182099567Y-108963532D01*
X182292654Y-108770782D01*
X182397281Y-108518813D01*
X182397519Y-108245984D01*
X182293332Y-107993833D01*
X182100582Y-107800746D01*
X181848613Y-107696119D01*
X181575784Y-107695881D01*
X181323633Y-107800068D01*
X181147994Y-107975400D01*
X180807915Y-107975400D01*
X180898681Y-107756813D01*
X180898919Y-107483984D01*
X180794732Y-107231833D01*
X180601982Y-107038746D01*
X180350013Y-106934119D01*
X180077184Y-106933881D01*
X179825033Y-107038068D01*
X179649394Y-107213400D01*
X172327314Y-107213400D01*
X172171792Y-107244334D01*
X172039946Y-107332431D01*
X169943432Y-109428946D01*
X169855335Y-109560791D01*
X169844350Y-109616016D01*
X169761052Y-109414419D01*
X169479066Y-109131939D01*
X169316400Y-109064394D01*
X169316400Y-106476800D01*
X169285465Y-106321277D01*
X169197368Y-106189431D01*
X167698768Y-104690832D01*
X167566923Y-104602735D01*
X167411400Y-104571800D01*
X162169537Y-104571800D01*
X160693099Y-103095363D01*
X160693099Y-95564177D01*
X160720934Y-95592061D01*
X161089556Y-95745126D01*
X161488693Y-95745474D01*
X161857581Y-95593052D01*
X162140061Y-95311066D01*
X162293126Y-94942444D01*
X162293127Y-94940693D01*
X162826526Y-94940693D01*
X162978948Y-95309581D01*
X163260934Y-95592061D01*
X163629556Y-95745126D01*
X164028693Y-95745474D01*
X164397581Y-95593052D01*
X164680061Y-95311066D01*
X164833126Y-94942444D01*
X164833127Y-94940693D01*
X165366526Y-94940693D01*
X165518948Y-95309581D01*
X165800934Y-95592061D01*
X166169556Y-95745126D01*
X166568693Y-95745474D01*
X166937581Y-95593052D01*
X167220061Y-95311066D01*
X167373126Y-94942444D01*
X167373127Y-94940693D01*
X167906526Y-94940693D01*
X168058948Y-95309581D01*
X168340934Y-95592061D01*
X168709556Y-95745126D01*
X169108693Y-95745474D01*
X169477581Y-95593052D01*
X169760061Y-95311066D01*
X169913126Y-94942444D01*
X169913127Y-94940693D01*
X170446526Y-94940693D01*
X170598948Y-95309581D01*
X170880934Y-95592061D01*
X171249556Y-95745126D01*
X171648693Y-95745474D01*
X172017581Y-95593052D01*
X172300061Y-95311066D01*
X172453126Y-94942444D01*
X172453127Y-94940693D01*
X172986526Y-94940693D01*
X173138948Y-95309581D01*
X173420934Y-95592061D01*
X173789556Y-95745126D01*
X174188693Y-95745474D01*
X174557581Y-95593052D01*
X174840061Y-95311066D01*
X174993126Y-94942444D01*
X174993127Y-94940693D01*
X175526526Y-94940693D01*
X175678948Y-95309581D01*
X175960934Y-95592061D01*
X176329556Y-95745126D01*
X176728693Y-95745474D01*
X177097581Y-95593052D01*
X177380061Y-95311066D01*
X177533126Y-94942444D01*
X177533127Y-94940693D01*
X178066526Y-94940693D01*
X178218948Y-95309581D01*
X178500934Y-95592061D01*
X178869556Y-95745126D01*
X179268693Y-95745474D01*
X179637581Y-95593052D01*
X179920061Y-95311066D01*
X180073126Y-94942444D01*
X180073474Y-94543307D01*
X179921052Y-94174419D01*
X179639066Y-93891939D01*
X179270444Y-93738874D01*
X178871307Y-93738526D01*
X178502419Y-93890948D01*
X178219939Y-94172934D01*
X178066874Y-94541556D01*
X178066526Y-94940693D01*
X177533127Y-94940693D01*
X177533474Y-94543307D01*
X177381052Y-94174419D01*
X177099066Y-93891939D01*
X176730444Y-93738874D01*
X176331307Y-93738526D01*
X175962419Y-93890948D01*
X175679939Y-94172934D01*
X175526874Y-94541556D01*
X175526526Y-94940693D01*
X174993127Y-94940693D01*
X174993474Y-94543307D01*
X174841052Y-94174419D01*
X174559066Y-93891939D01*
X174190444Y-93738874D01*
X173791307Y-93738526D01*
X173422419Y-93890948D01*
X173139939Y-94172934D01*
X172986874Y-94541556D01*
X172986526Y-94940693D01*
X172453127Y-94940693D01*
X172453474Y-94543307D01*
X172301052Y-94174419D01*
X172019066Y-93891939D01*
X171650444Y-93738874D01*
X171251307Y-93738526D01*
X170882419Y-93890948D01*
X170599939Y-94172934D01*
X170446874Y-94541556D01*
X170446526Y-94940693D01*
X169913127Y-94940693D01*
X169913474Y-94543307D01*
X169761052Y-94174419D01*
X169479066Y-93891939D01*
X169110444Y-93738874D01*
X168711307Y-93738526D01*
X168342419Y-93890948D01*
X168059939Y-94172934D01*
X167906874Y-94541556D01*
X167906526Y-94940693D01*
X167373127Y-94940693D01*
X167373474Y-94543307D01*
X167221052Y-94174419D01*
X166939066Y-93891939D01*
X166570444Y-93738874D01*
X166171307Y-93738526D01*
X165802419Y-93890948D01*
X165519939Y-94172934D01*
X165366874Y-94541556D01*
X165366526Y-94940693D01*
X164833127Y-94940693D01*
X164833474Y-94543307D01*
X164681052Y-94174419D01*
X164399066Y-93891939D01*
X164030444Y-93738874D01*
X163631307Y-93738526D01*
X163262419Y-93890948D01*
X162979939Y-94172934D01*
X162826874Y-94541556D01*
X162826526Y-94940693D01*
X162293127Y-94940693D01*
X162293474Y-94543307D01*
X162141052Y-94174419D01*
X161859066Y-93891939D01*
X161490444Y-93738874D01*
X161091307Y-93738526D01*
X160722419Y-93890948D01*
X160600519Y-94012635D01*
X160574067Y-93973046D01*
X158833121Y-92232101D01*
X158701276Y-92144004D01*
X158545753Y-92113069D01*
X150143395Y-92113069D01*
X149987872Y-92144004D01*
X149856027Y-92232101D01*
X148620104Y-93468024D01*
X148532007Y-93599869D01*
X148501072Y-93755392D01*
X148501071Y-110975821D01*
X148532006Y-111131344D01*
X148558550Y-111171069D01*
X148620103Y-111263189D01*
X153083600Y-115726686D01*
X153083600Y-116560600D01*
X135884532Y-116560600D01*
X135845523Y-116534535D01*
X135690000Y-116503600D01*
X133836800Y-116503600D01*
X133681277Y-116534535D01*
X133642268Y-116560600D01*
X131396400Y-116560600D01*
X131396400Y-115519223D01*
X131422869Y-115492754D01*
X131422871Y-115492751D01*
X136251515Y-110664107D01*
X136947419Y-110664107D01*
X137012484Y-110889519D01*
X137506876Y-111051958D01*
X138025798Y-111012838D01*
X138323516Y-110889519D01*
X138388581Y-110664107D01*
X139487419Y-110664107D01*
X139552484Y-110889519D01*
X140046876Y-111051958D01*
X140565798Y-111012838D01*
X140863516Y-110889519D01*
X140928581Y-110664107D01*
X140208000Y-109943526D01*
X139487419Y-110664107D01*
X138388581Y-110664107D01*
X137668000Y-109943526D01*
X136947419Y-110664107D01*
X136251515Y-110664107D01*
X136526367Y-110389256D01*
X136731893Y-110448581D01*
X137452474Y-109728000D01*
X137883526Y-109728000D01*
X138604107Y-110448581D01*
X138829519Y-110383516D01*
X138925491Y-110091420D01*
X139046481Y-110383516D01*
X139271893Y-110448581D01*
X139992474Y-109728000D01*
X140423526Y-109728000D01*
X141144107Y-110448581D01*
X141369519Y-110383516D01*
X141519614Y-109926693D01*
X141744526Y-109926693D01*
X141896948Y-110295581D01*
X142178934Y-110578061D01*
X142547556Y-110731126D01*
X142946693Y-110731474D01*
X143315581Y-110579052D01*
X143598061Y-110297066D01*
X143751126Y-109928444D01*
X143751474Y-109529307D01*
X143599052Y-109160419D01*
X143317066Y-108877939D01*
X142948444Y-108724874D01*
X142549307Y-108724526D01*
X142180419Y-108876948D01*
X141897939Y-109158934D01*
X141744874Y-109527556D01*
X141744526Y-109926693D01*
X141519614Y-109926693D01*
X141531958Y-109889124D01*
X141492838Y-109370202D01*
X141369519Y-109072484D01*
X141144107Y-109007419D01*
X140423526Y-109728000D01*
X139992474Y-109728000D01*
X139271893Y-109007419D01*
X139046481Y-109072484D01*
X138950509Y-109364580D01*
X138829519Y-109072484D01*
X138604107Y-109007419D01*
X137883526Y-109728000D01*
X137452474Y-109728000D01*
X137438332Y-109713858D01*
X137653858Y-109498332D01*
X137668000Y-109512474D01*
X138388581Y-108791893D01*
X139487419Y-108791893D01*
X140208000Y-109512474D01*
X140928581Y-108791893D01*
X140863516Y-108566481D01*
X140369124Y-108404042D01*
X139850202Y-108443162D01*
X139552484Y-108566481D01*
X139487419Y-108791893D01*
X138388581Y-108791893D01*
X138323516Y-108566481D01*
X137829124Y-108404042D01*
X137541366Y-108425735D01*
X137776567Y-108328552D01*
X137969654Y-108135802D01*
X138074281Y-107883833D01*
X138074519Y-107611004D01*
X138015183Y-107467400D01*
X141016269Y-107467400D01*
X141190618Y-107642054D01*
X141442587Y-107746681D01*
X141715416Y-107746919D01*
X141967567Y-107642732D01*
X142160654Y-107449982D01*
X142265281Y-107198013D01*
X142265519Y-106925184D01*
X142161332Y-106673033D01*
X141968582Y-106479946D01*
X141716613Y-106375319D01*
X141443784Y-106375081D01*
X141191633Y-106479268D01*
X141015994Y-106654600D01*
X139647200Y-106654600D01*
X139728481Y-106458855D01*
X139728719Y-106186026D01*
X139652840Y-106002386D01*
X139819018Y-106168854D01*
X140070987Y-106273481D01*
X140343816Y-106273719D01*
X140595967Y-106169532D01*
X140789054Y-105976782D01*
X140893681Y-105724813D01*
X140893919Y-105451984D01*
X140789732Y-105199833D01*
X140596982Y-105006746D01*
X140345013Y-104902119D01*
X140072184Y-104901881D01*
X139820033Y-105006068D01*
X139644394Y-105181400D01*
X127623314Y-105181400D01*
X127467791Y-105212335D01*
X127335946Y-105300432D01*
X123846796Y-108789582D01*
X122789788Y-108791870D01*
X122628444Y-108724874D01*
X122229307Y-108724526D01*
X122062514Y-108793444D01*
X120262959Y-108797339D01*
X120088444Y-108724874D01*
X119689307Y-108724526D01*
X119509138Y-108798971D01*
X117736131Y-108802808D01*
X117548444Y-108724874D01*
X117149307Y-108724526D01*
X116955762Y-108804497D01*
X115209303Y-108808278D01*
X115008444Y-108724874D01*
X114609307Y-108724526D01*
X114402386Y-108810024D01*
X112750380Y-108813600D01*
X112710578Y-108821815D01*
X112707307Y-108824059D01*
X112468444Y-108724874D01*
X112069307Y-108724526D01*
X111700419Y-108876948D01*
X111417939Y-109158934D01*
X111264874Y-109527556D01*
X111264526Y-109926693D01*
X111331787Y-110089477D01*
X107337514Y-114083750D01*
X107337511Y-114083752D01*
X105702632Y-115718632D01*
X105614535Y-115850477D01*
X105583600Y-116006000D01*
X105583600Y-116560600D01*
X103896400Y-116560600D01*
X103896400Y-109926693D01*
X108724526Y-109926693D01*
X108876948Y-110295581D01*
X109158934Y-110578061D01*
X109527556Y-110731126D01*
X109926693Y-110731474D01*
X110295581Y-110579052D01*
X110578061Y-110297066D01*
X110731126Y-109928444D01*
X110731474Y-109529307D01*
X110579052Y-109160419D01*
X110297066Y-108877939D01*
X109928444Y-108724874D01*
X109529307Y-108724526D01*
X109160419Y-108876948D01*
X108877939Y-109158934D01*
X108724874Y-109527556D01*
X108724526Y-109926693D01*
X103896400Y-109926693D01*
X103896400Y-109896797D01*
X103865465Y-109741274D01*
X103777368Y-109609429D01*
X103276400Y-109108461D01*
X103276400Y-107894693D01*
X103390526Y-107894693D01*
X103542948Y-108263581D01*
X103824934Y-108546061D01*
X104193556Y-108699126D01*
X104592693Y-108699474D01*
X104961581Y-108547052D01*
X105244061Y-108265066D01*
X105397126Y-107896444D01*
X105397474Y-107497307D01*
X105245052Y-107128419D01*
X104963066Y-106845939D01*
X104594444Y-106692874D01*
X104195307Y-106692526D01*
X103826419Y-106844948D01*
X103543939Y-107126934D01*
X103390874Y-107495556D01*
X103390526Y-107894693D01*
X103276400Y-107894693D01*
X103276400Y-105354693D01*
X103390526Y-105354693D01*
X103542948Y-105723581D01*
X103824934Y-106006061D01*
X104193556Y-106159126D01*
X104592693Y-106159474D01*
X104961581Y-106007052D01*
X105244061Y-105725066D01*
X105397126Y-105356444D01*
X105397474Y-104957307D01*
X105245052Y-104588419D01*
X104963066Y-104305939D01*
X104594444Y-104152874D01*
X104195307Y-104152526D01*
X103826419Y-104304948D01*
X103543939Y-104586934D01*
X103390874Y-104955556D01*
X103390526Y-105354693D01*
X103276400Y-105354693D01*
X103276400Y-104308336D01*
X104032491Y-103552246D01*
X104193556Y-103619126D01*
X104592693Y-103619474D01*
X104961581Y-103467052D01*
X105244061Y-103185066D01*
X105397126Y-102816444D01*
X105397474Y-102417307D01*
X105245052Y-102048419D01*
X104963066Y-101765939D01*
X104594444Y-101612874D01*
X104195307Y-101612526D01*
X103826419Y-101764948D01*
X103543939Y-102046934D01*
X103390874Y-102415556D01*
X103390526Y-102814693D01*
X103457787Y-102977476D01*
X102582632Y-103852632D01*
X102494535Y-103984477D01*
X102463600Y-104140000D01*
X102463600Y-109276797D01*
X102494535Y-109432320D01*
X102564138Y-109536487D01*
X102582632Y-109564165D01*
X103083600Y-110065133D01*
X103083600Y-116560600D01*
X101396400Y-116560600D01*
X101396400Y-106832000D01*
X101365465Y-106676477D01*
X101277368Y-106544632D01*
X97710246Y-102977510D01*
X97777126Y-102816444D01*
X97777474Y-102417307D01*
X97625052Y-102048419D01*
X97343066Y-101765939D01*
X96974444Y-101612874D01*
X96575307Y-101612526D01*
X96206419Y-101764948D01*
X95923939Y-102046934D01*
X95770874Y-102415556D01*
X95770526Y-102814693D01*
X95922948Y-103183581D01*
X96204934Y-103466061D01*
X96573556Y-103619126D01*
X96972693Y-103619474D01*
X97135477Y-103552213D01*
X100583600Y-107000336D01*
X100583600Y-116560600D01*
X92837000Y-116560600D01*
X92837000Y-108632107D01*
X96053419Y-108632107D01*
X96118484Y-108857519D01*
X96612876Y-109019958D01*
X97131798Y-108980838D01*
X97429516Y-108857519D01*
X97494581Y-108632107D01*
X96774000Y-107911526D01*
X96053419Y-108632107D01*
X92837000Y-108632107D01*
X92837000Y-107534876D01*
X95450042Y-107534876D01*
X95489162Y-108053798D01*
X95612481Y-108351516D01*
X95837893Y-108416581D01*
X96558474Y-107696000D01*
X96989526Y-107696000D01*
X97710107Y-108416581D01*
X97935519Y-108351516D01*
X98097958Y-107857124D01*
X98058838Y-107338202D01*
X97935519Y-107040484D01*
X97710107Y-106975419D01*
X96989526Y-107696000D01*
X96558474Y-107696000D01*
X95837893Y-106975419D01*
X95612481Y-107040484D01*
X95450042Y-107534876D01*
X92837000Y-107534876D01*
X92837000Y-106759893D01*
X96053419Y-106759893D01*
X96774000Y-107480474D01*
X97494581Y-106759893D01*
X97429516Y-106534481D01*
X96935124Y-106372042D01*
X96416202Y-106411162D01*
X96118484Y-106534481D01*
X96053419Y-106759893D01*
X92837000Y-106759893D01*
X92837000Y-105354693D01*
X95770526Y-105354693D01*
X95922948Y-105723581D01*
X96204934Y-106006061D01*
X96573556Y-106159126D01*
X96972693Y-106159474D01*
X97341581Y-106007052D01*
X97624061Y-105725066D01*
X97777126Y-105356444D01*
X97777474Y-104957307D01*
X97625052Y-104588419D01*
X97343066Y-104305939D01*
X96974444Y-104152874D01*
X96575307Y-104152526D01*
X96206419Y-104304948D01*
X95923939Y-104586934D01*
X95770874Y-104955556D01*
X95770526Y-105354693D01*
X92837000Y-105354693D01*
X92837000Y-101371400D01*
X94259400Y-101371400D01*
X94298281Y-101363666D01*
X94331242Y-101341642D01*
X94353266Y-101308681D01*
X94360997Y-101269018D01*
X94346447Y-99377500D01*
X95764729Y-99377500D01*
X95764729Y-100774500D01*
X95788385Y-100893427D01*
X95855752Y-100994248D01*
X95956573Y-101061615D01*
X96075500Y-101085271D01*
X97472500Y-101085271D01*
X97591427Y-101061615D01*
X97692248Y-100994248D01*
X97759615Y-100893427D01*
X97783271Y-100774500D01*
X97783271Y-100274693D01*
X103390526Y-100274693D01*
X103542948Y-100643581D01*
X103824934Y-100926061D01*
X104193556Y-101079126D01*
X104592693Y-101079474D01*
X104961581Y-100927052D01*
X105244061Y-100645066D01*
X105397126Y-100276444D01*
X105397474Y-99877307D01*
X105245052Y-99508419D01*
X104963066Y-99225939D01*
X104594444Y-99072874D01*
X104195307Y-99072526D01*
X103826419Y-99224948D01*
X103543939Y-99506934D01*
X103390874Y-99875556D01*
X103390526Y-100274693D01*
X97783271Y-100274693D01*
X97783271Y-99377500D01*
X97759615Y-99258573D01*
X97692248Y-99157752D01*
X97591427Y-99090385D01*
X97472500Y-99066729D01*
X96075500Y-99066729D01*
X95956573Y-99090385D01*
X95855752Y-99157752D01*
X95788385Y-99258573D01*
X95764729Y-99377500D01*
X94346447Y-99377500D01*
X94316037Y-95424107D01*
X109007419Y-95424107D01*
X109072484Y-95649519D01*
X109566876Y-95811958D01*
X110085798Y-95772838D01*
X110383516Y-95649519D01*
X110448581Y-95424107D01*
X109728000Y-94703526D01*
X109007419Y-95424107D01*
X94316037Y-95424107D01*
X94310985Y-94767400D01*
X99161600Y-94767400D01*
X99200481Y-94759666D01*
X99233442Y-94737642D01*
X99255466Y-94704681D01*
X99263200Y-94665800D01*
X99263200Y-94326876D01*
X108404042Y-94326876D01*
X108443162Y-94845798D01*
X108566481Y-95143516D01*
X108791893Y-95208581D01*
X109512474Y-94488000D01*
X109943526Y-94488000D01*
X110664107Y-95208581D01*
X110889519Y-95143516D01*
X111039614Y-94686693D01*
X111264526Y-94686693D01*
X111416948Y-95055581D01*
X111698934Y-95338061D01*
X112067556Y-95491126D01*
X112466693Y-95491474D01*
X112835581Y-95339052D01*
X113118061Y-95057066D01*
X113271126Y-94688444D01*
X113271127Y-94686693D01*
X113804526Y-94686693D01*
X113956948Y-95055581D01*
X114238934Y-95338061D01*
X114607556Y-95491126D01*
X115006693Y-95491474D01*
X115375581Y-95339052D01*
X115658061Y-95057066D01*
X115811126Y-94688444D01*
X115811127Y-94686693D01*
X116344526Y-94686693D01*
X116496948Y-95055581D01*
X116778934Y-95338061D01*
X117147556Y-95491126D01*
X117546693Y-95491474D01*
X117915581Y-95339052D01*
X118198061Y-95057066D01*
X118351126Y-94688444D01*
X118351127Y-94686693D01*
X118884526Y-94686693D01*
X119036948Y-95055581D01*
X119318934Y-95338061D01*
X119687556Y-95491126D01*
X120086693Y-95491474D01*
X120455581Y-95339052D01*
X120738061Y-95057066D01*
X120891126Y-94688444D01*
X120891127Y-94686693D01*
X121424526Y-94686693D01*
X121576948Y-95055581D01*
X121858934Y-95338061D01*
X122227556Y-95491126D01*
X122626693Y-95491474D01*
X122995581Y-95339052D01*
X123278061Y-95057066D01*
X123431126Y-94688444D01*
X123431127Y-94686693D01*
X123964526Y-94686693D01*
X124116948Y-95055581D01*
X124398934Y-95338061D01*
X124767556Y-95491126D01*
X125166693Y-95491474D01*
X125535581Y-95339052D01*
X125818061Y-95057066D01*
X125971126Y-94688444D01*
X125971127Y-94686693D01*
X126504526Y-94686693D01*
X126656948Y-95055581D01*
X126938934Y-95338061D01*
X127307556Y-95491126D01*
X127706693Y-95491474D01*
X128075581Y-95339052D01*
X128358061Y-95057066D01*
X128511126Y-94688444D01*
X128511127Y-94686693D01*
X129044526Y-94686693D01*
X129196948Y-95055581D01*
X129478934Y-95338061D01*
X129847556Y-95491126D01*
X130246693Y-95491474D01*
X130615581Y-95339052D01*
X130898061Y-95057066D01*
X131051126Y-94688444D01*
X131051127Y-94686693D01*
X131584526Y-94686693D01*
X131736948Y-95055581D01*
X132018934Y-95338061D01*
X132387556Y-95491126D01*
X132786693Y-95491474D01*
X133155581Y-95339052D01*
X133438061Y-95057066D01*
X133591126Y-94688444D01*
X133591127Y-94686693D01*
X134124526Y-94686693D01*
X134276948Y-95055581D01*
X134558934Y-95338061D01*
X134927556Y-95491126D01*
X135326693Y-95491474D01*
X135695581Y-95339052D01*
X135978061Y-95057066D01*
X136131126Y-94688444D01*
X136131127Y-94686693D01*
X136664526Y-94686693D01*
X136816948Y-95055581D01*
X137098934Y-95338061D01*
X137467556Y-95491126D01*
X137866693Y-95491474D01*
X138235581Y-95339052D01*
X138518061Y-95057066D01*
X138671126Y-94688444D01*
X138671127Y-94686693D01*
X139204526Y-94686693D01*
X139356948Y-95055581D01*
X139638934Y-95338061D01*
X140007556Y-95491126D01*
X140406693Y-95491474D01*
X140775581Y-95339052D01*
X141058061Y-95057066D01*
X141211126Y-94688444D01*
X141211474Y-94289307D01*
X141059052Y-93920419D01*
X140928362Y-93789500D01*
X141738729Y-93789500D01*
X141738729Y-95186500D01*
X141762385Y-95305427D01*
X141829752Y-95406248D01*
X141930573Y-95473615D01*
X142049500Y-95497271D01*
X143446500Y-95497271D01*
X143565427Y-95473615D01*
X143666248Y-95406248D01*
X143733615Y-95305427D01*
X143757271Y-95186500D01*
X143757271Y-93789500D01*
X143733615Y-93670573D01*
X143666248Y-93569752D01*
X143565427Y-93502385D01*
X143446500Y-93478729D01*
X142049500Y-93478729D01*
X141930573Y-93502385D01*
X141829752Y-93569752D01*
X141762385Y-93670573D01*
X141738729Y-93789500D01*
X140928362Y-93789500D01*
X140777066Y-93637939D01*
X140408444Y-93484874D01*
X140009307Y-93484526D01*
X139640419Y-93636948D01*
X139357939Y-93918934D01*
X139204874Y-94287556D01*
X139204526Y-94686693D01*
X138671127Y-94686693D01*
X138671474Y-94289307D01*
X138519052Y-93920419D01*
X138237066Y-93637939D01*
X137868444Y-93484874D01*
X137469307Y-93484526D01*
X137100419Y-93636948D01*
X136817939Y-93918934D01*
X136664874Y-94287556D01*
X136664526Y-94686693D01*
X136131127Y-94686693D01*
X136131474Y-94289307D01*
X135979052Y-93920419D01*
X135697066Y-93637939D01*
X135328444Y-93484874D01*
X134929307Y-93484526D01*
X134560419Y-93636948D01*
X134277939Y-93918934D01*
X134124874Y-94287556D01*
X134124526Y-94686693D01*
X133591127Y-94686693D01*
X133591474Y-94289307D01*
X133439052Y-93920419D01*
X133157066Y-93637939D01*
X132788444Y-93484874D01*
X132389307Y-93484526D01*
X132020419Y-93636948D01*
X131737939Y-93918934D01*
X131584874Y-94287556D01*
X131584526Y-94686693D01*
X131051127Y-94686693D01*
X131051474Y-94289307D01*
X130899052Y-93920419D01*
X130617066Y-93637939D01*
X130248444Y-93484874D01*
X129849307Y-93484526D01*
X129480419Y-93636948D01*
X129197939Y-93918934D01*
X129044874Y-94287556D01*
X129044526Y-94686693D01*
X128511127Y-94686693D01*
X128511474Y-94289307D01*
X128359052Y-93920419D01*
X128077066Y-93637939D01*
X127708444Y-93484874D01*
X127309307Y-93484526D01*
X126940419Y-93636948D01*
X126657939Y-93918934D01*
X126504874Y-94287556D01*
X126504526Y-94686693D01*
X125971127Y-94686693D01*
X125971474Y-94289307D01*
X125819052Y-93920419D01*
X125537066Y-93637939D01*
X125168444Y-93484874D01*
X124769307Y-93484526D01*
X124400419Y-93636948D01*
X124117939Y-93918934D01*
X123964874Y-94287556D01*
X123964526Y-94686693D01*
X123431127Y-94686693D01*
X123431474Y-94289307D01*
X123279052Y-93920419D01*
X122997066Y-93637939D01*
X122628444Y-93484874D01*
X122229307Y-93484526D01*
X121860419Y-93636948D01*
X121577939Y-93918934D01*
X121424874Y-94287556D01*
X121424526Y-94686693D01*
X120891127Y-94686693D01*
X120891474Y-94289307D01*
X120739052Y-93920419D01*
X120457066Y-93637939D01*
X120088444Y-93484874D01*
X119689307Y-93484526D01*
X119320419Y-93636948D01*
X119037939Y-93918934D01*
X118884874Y-94287556D01*
X118884526Y-94686693D01*
X118351127Y-94686693D01*
X118351474Y-94289307D01*
X118199052Y-93920419D01*
X117917066Y-93637939D01*
X117548444Y-93484874D01*
X117149307Y-93484526D01*
X116780419Y-93636948D01*
X116497939Y-93918934D01*
X116344874Y-94287556D01*
X116344526Y-94686693D01*
X115811127Y-94686693D01*
X115811474Y-94289307D01*
X115659052Y-93920419D01*
X115377066Y-93637939D01*
X115008444Y-93484874D01*
X114609307Y-93484526D01*
X114240419Y-93636948D01*
X113957939Y-93918934D01*
X113804874Y-94287556D01*
X113804526Y-94686693D01*
X113271127Y-94686693D01*
X113271474Y-94289307D01*
X113119052Y-93920419D01*
X112837066Y-93637939D01*
X112468444Y-93484874D01*
X112069307Y-93484526D01*
X111700419Y-93636948D01*
X111417939Y-93918934D01*
X111264874Y-94287556D01*
X111264526Y-94686693D01*
X111039614Y-94686693D01*
X111051958Y-94649124D01*
X111012838Y-94130202D01*
X110889519Y-93832484D01*
X110664107Y-93767419D01*
X109943526Y-94488000D01*
X109512474Y-94488000D01*
X108791893Y-93767419D01*
X108566481Y-93832484D01*
X108404042Y-94326876D01*
X99263200Y-94326876D01*
X99263200Y-93551893D01*
X109007419Y-93551893D01*
X109728000Y-94272474D01*
X110448581Y-93551893D01*
X110383516Y-93326481D01*
X109889124Y-93164042D01*
X109370202Y-93203162D01*
X109072484Y-93326481D01*
X109007419Y-93551893D01*
X99263200Y-93551893D01*
X99263200Y-91770200D01*
X190220600Y-91770200D01*
X190220600Y-98628200D01*
X190220600Y-98628200D01*
G37*
X190220600Y-98628200D02*
X190228334Y-98667081D01*
X190250358Y-98700042D01*
X190283319Y-98722066D01*
X190322200Y-98729800D01*
X191617600Y-98729800D01*
X191617600Y-116560600D01*
X182016400Y-116560600D01*
X182016400Y-112131536D01*
X183434068Y-110713869D01*
X183445648Y-110696538D01*
X183580934Y-110832061D01*
X183949556Y-110985126D01*
X184348693Y-110985474D01*
X184717581Y-110833052D01*
X185000061Y-110551066D01*
X185153126Y-110182444D01*
X185153474Y-109783307D01*
X185001052Y-109414419D01*
X184719066Y-109131939D01*
X184350444Y-108978874D01*
X183951307Y-108978526D01*
X183582419Y-109130948D01*
X183553099Y-109160217D01*
X183553099Y-96278699D01*
X183522164Y-96123176D01*
X183434067Y-95991331D01*
X182546246Y-95103510D01*
X182613126Y-94942444D01*
X182613474Y-94543307D01*
X182461052Y-94174419D01*
X182330362Y-94043500D01*
X183140729Y-94043500D01*
X183140729Y-95440500D01*
X183164385Y-95559427D01*
X183231752Y-95660248D01*
X183332573Y-95727615D01*
X183451500Y-95751271D01*
X184848500Y-95751271D01*
X184967427Y-95727615D01*
X185068248Y-95660248D01*
X185135615Y-95559427D01*
X185159271Y-95440500D01*
X185159271Y-94043500D01*
X185135615Y-93924573D01*
X185068248Y-93823752D01*
X184967427Y-93756385D01*
X184848500Y-93732729D01*
X183451500Y-93732729D01*
X183332573Y-93756385D01*
X183231752Y-93823752D01*
X183164385Y-93924573D01*
X183140729Y-94043500D01*
X182330362Y-94043500D01*
X182179066Y-93891939D01*
X181810444Y-93738874D01*
X181411307Y-93738526D01*
X181042419Y-93890948D01*
X180759939Y-94172934D01*
X180606874Y-94541556D01*
X180606526Y-94940693D01*
X180758948Y-95309581D01*
X181040934Y-95592061D01*
X181409556Y-95745126D01*
X181808693Y-95745474D01*
X181971477Y-95678213D01*
X182740299Y-96447035D01*
X182740299Y-110258164D01*
X182469053Y-110529410D01*
X182613126Y-110182444D01*
X182613474Y-109783307D01*
X182461052Y-109414419D01*
X182179066Y-109131939D01*
X181936130Y-109031063D01*
X182099567Y-108963532D01*
X182292654Y-108770782D01*
X182397281Y-108518813D01*
X182397519Y-108245984D01*
X182293332Y-107993833D01*
X182100582Y-107800746D01*
X181848613Y-107696119D01*
X181575784Y-107695881D01*
X181323633Y-107800068D01*
X181147994Y-107975400D01*
X180807915Y-107975400D01*
X180898681Y-107756813D01*
X180898919Y-107483984D01*
X180794732Y-107231833D01*
X180601982Y-107038746D01*
X180350013Y-106934119D01*
X180077184Y-106933881D01*
X179825033Y-107038068D01*
X179649394Y-107213400D01*
X172327314Y-107213400D01*
X172171792Y-107244334D01*
X172039946Y-107332431D01*
X169943432Y-109428946D01*
X169855335Y-109560791D01*
X169844350Y-109616016D01*
X169761052Y-109414419D01*
X169479066Y-109131939D01*
X169316400Y-109064394D01*
X169316400Y-106476800D01*
X169285465Y-106321277D01*
X169197368Y-106189431D01*
X167698768Y-104690832D01*
X167566923Y-104602735D01*
X167411400Y-104571800D01*
X162169537Y-104571800D01*
X160693099Y-103095363D01*
X160693099Y-95564177D01*
X160720934Y-95592061D01*
X161089556Y-95745126D01*
X161488693Y-95745474D01*
X161857581Y-95593052D01*
X162140061Y-95311066D01*
X162293126Y-94942444D01*
X162293127Y-94940693D01*
X162826526Y-94940693D01*
X162978948Y-95309581D01*
X163260934Y-95592061D01*
X163629556Y-95745126D01*
X164028693Y-95745474D01*
X164397581Y-95593052D01*
X164680061Y-95311066D01*
X164833126Y-94942444D01*
X164833127Y-94940693D01*
X165366526Y-94940693D01*
X165518948Y-95309581D01*
X165800934Y-95592061D01*
X166169556Y-95745126D01*
X166568693Y-95745474D01*
X166937581Y-95593052D01*
X167220061Y-95311066D01*
X167373126Y-94942444D01*
X167373127Y-94940693D01*
X167906526Y-94940693D01*
X168058948Y-95309581D01*
X168340934Y-95592061D01*
X168709556Y-95745126D01*
X169108693Y-95745474D01*
X169477581Y-95593052D01*
X169760061Y-95311066D01*
X169913126Y-94942444D01*
X169913127Y-94940693D01*
X170446526Y-94940693D01*
X170598948Y-95309581D01*
X170880934Y-95592061D01*
X171249556Y-95745126D01*
X171648693Y-95745474D01*
X172017581Y-95593052D01*
X172300061Y-95311066D01*
X172453126Y-94942444D01*
X172453127Y-94940693D01*
X172986526Y-94940693D01*
X173138948Y-95309581D01*
X173420934Y-95592061D01*
X173789556Y-95745126D01*
X174188693Y-95745474D01*
X174557581Y-95593052D01*
X174840061Y-95311066D01*
X174993126Y-94942444D01*
X174993127Y-94940693D01*
X175526526Y-94940693D01*
X175678948Y-95309581D01*
X175960934Y-95592061D01*
X176329556Y-95745126D01*
X176728693Y-95745474D01*
X177097581Y-95593052D01*
X177380061Y-95311066D01*
X177533126Y-94942444D01*
X177533127Y-94940693D01*
X178066526Y-94940693D01*
X178218948Y-95309581D01*
X178500934Y-95592061D01*
X178869556Y-95745126D01*
X179268693Y-95745474D01*
X179637581Y-95593052D01*
X179920061Y-95311066D01*
X180073126Y-94942444D01*
X180073474Y-94543307D01*
X179921052Y-94174419D01*
X179639066Y-93891939D01*
X179270444Y-93738874D01*
X178871307Y-93738526D01*
X178502419Y-93890948D01*
X178219939Y-94172934D01*
X178066874Y-94541556D01*
X178066526Y-94940693D01*
X177533127Y-94940693D01*
X177533474Y-94543307D01*
X177381052Y-94174419D01*
X177099066Y-93891939D01*
X176730444Y-93738874D01*
X176331307Y-93738526D01*
X175962419Y-93890948D01*
X175679939Y-94172934D01*
X175526874Y-94541556D01*
X175526526Y-94940693D01*
X174993127Y-94940693D01*
X174993474Y-94543307D01*
X174841052Y-94174419D01*
X174559066Y-93891939D01*
X174190444Y-93738874D01*
X173791307Y-93738526D01*
X173422419Y-93890948D01*
X173139939Y-94172934D01*
X172986874Y-94541556D01*
X172986526Y-94940693D01*
X172453127Y-94940693D01*
X172453474Y-94543307D01*
X172301052Y-94174419D01*
X172019066Y-93891939D01*
X171650444Y-93738874D01*
X171251307Y-93738526D01*
X170882419Y-93890948D01*
X170599939Y-94172934D01*
X170446874Y-94541556D01*
X170446526Y-94940693D01*
X169913127Y-94940693D01*
X169913474Y-94543307D01*
X169761052Y-94174419D01*
X169479066Y-93891939D01*
X169110444Y-93738874D01*
X168711307Y-93738526D01*
X168342419Y-93890948D01*
X168059939Y-94172934D01*
X167906874Y-94541556D01*
X167906526Y-94940693D01*
X167373127Y-94940693D01*
X167373474Y-94543307D01*
X167221052Y-94174419D01*
X166939066Y-93891939D01*
X166570444Y-93738874D01*
X166171307Y-93738526D01*
X165802419Y-93890948D01*
X165519939Y-94172934D01*
X165366874Y-94541556D01*
X165366526Y-94940693D01*
X164833127Y-94940693D01*
X164833474Y-94543307D01*
X164681052Y-94174419D01*
X164399066Y-93891939D01*
X164030444Y-93738874D01*
X163631307Y-93738526D01*
X163262419Y-93890948D01*
X162979939Y-94172934D01*
X162826874Y-94541556D01*
X162826526Y-94940693D01*
X162293127Y-94940693D01*
X162293474Y-94543307D01*
X162141052Y-94174419D01*
X161859066Y-93891939D01*
X161490444Y-93738874D01*
X161091307Y-93738526D01*
X160722419Y-93890948D01*
X160600519Y-94012635D01*
X160574067Y-93973046D01*
X158833121Y-92232101D01*
X158701276Y-92144004D01*
X158545753Y-92113069D01*
X150143395Y-92113069D01*
X149987872Y-92144004D01*
X149856027Y-92232101D01*
X148620104Y-93468024D01*
X148532007Y-93599869D01*
X148501072Y-93755392D01*
X148501071Y-110975821D01*
X148532006Y-111131344D01*
X148558550Y-111171069D01*
X148620103Y-111263189D01*
X153083600Y-115726686D01*
X153083600Y-116560600D01*
X135884532Y-116560600D01*
X135845523Y-116534535D01*
X135690000Y-116503600D01*
X133836800Y-116503600D01*
X133681277Y-116534535D01*
X133642268Y-116560600D01*
X131396400Y-116560600D01*
X131396400Y-115519223D01*
X131422869Y-115492754D01*
X131422871Y-115492751D01*
X136251515Y-110664107D01*
X136947419Y-110664107D01*
X137012484Y-110889519D01*
X137506876Y-111051958D01*
X138025798Y-111012838D01*
X138323516Y-110889519D01*
X138388581Y-110664107D01*
X139487419Y-110664107D01*
X139552484Y-110889519D01*
X140046876Y-111051958D01*
X140565798Y-111012838D01*
X140863516Y-110889519D01*
X140928581Y-110664107D01*
X140208000Y-109943526D01*
X139487419Y-110664107D01*
X138388581Y-110664107D01*
X137668000Y-109943526D01*
X136947419Y-110664107D01*
X136251515Y-110664107D01*
X136526367Y-110389256D01*
X136731893Y-110448581D01*
X137452474Y-109728000D01*
X137883526Y-109728000D01*
X138604107Y-110448581D01*
X138829519Y-110383516D01*
X138925491Y-110091420D01*
X139046481Y-110383516D01*
X139271893Y-110448581D01*
X139992474Y-109728000D01*
X140423526Y-109728000D01*
X141144107Y-110448581D01*
X141369519Y-110383516D01*
X141519614Y-109926693D01*
X141744526Y-109926693D01*
X141896948Y-110295581D01*
X142178934Y-110578061D01*
X142547556Y-110731126D01*
X142946693Y-110731474D01*
X143315581Y-110579052D01*
X143598061Y-110297066D01*
X143751126Y-109928444D01*
X143751474Y-109529307D01*
X143599052Y-109160419D01*
X143317066Y-108877939D01*
X142948444Y-108724874D01*
X142549307Y-108724526D01*
X142180419Y-108876948D01*
X141897939Y-109158934D01*
X141744874Y-109527556D01*
X141744526Y-109926693D01*
X141519614Y-109926693D01*
X141531958Y-109889124D01*
X141492838Y-109370202D01*
X141369519Y-109072484D01*
X141144107Y-109007419D01*
X140423526Y-109728000D01*
X139992474Y-109728000D01*
X139271893Y-109007419D01*
X139046481Y-109072484D01*
X138950509Y-109364580D01*
X138829519Y-109072484D01*
X138604107Y-109007419D01*
X137883526Y-109728000D01*
X137452474Y-109728000D01*
X137438332Y-109713858D01*
X137653858Y-109498332D01*
X137668000Y-109512474D01*
X138388581Y-108791893D01*
X139487419Y-108791893D01*
X140208000Y-109512474D01*
X140928581Y-108791893D01*
X140863516Y-108566481D01*
X140369124Y-108404042D01*
X139850202Y-108443162D01*
X139552484Y-108566481D01*
X139487419Y-108791893D01*
X138388581Y-108791893D01*
X138323516Y-108566481D01*
X137829124Y-108404042D01*
X137541366Y-108425735D01*
X137776567Y-108328552D01*
X137969654Y-108135802D01*
X138074281Y-107883833D01*
X138074519Y-107611004D01*
X138015183Y-107467400D01*
X141016269Y-107467400D01*
X141190618Y-107642054D01*
X141442587Y-107746681D01*
X141715416Y-107746919D01*
X141967567Y-107642732D01*
X142160654Y-107449982D01*
X142265281Y-107198013D01*
X142265519Y-106925184D01*
X142161332Y-106673033D01*
X141968582Y-106479946D01*
X141716613Y-106375319D01*
X141443784Y-106375081D01*
X141191633Y-106479268D01*
X141015994Y-106654600D01*
X139647200Y-106654600D01*
X139728481Y-106458855D01*
X139728719Y-106186026D01*
X139652840Y-106002386D01*
X139819018Y-106168854D01*
X140070987Y-106273481D01*
X140343816Y-106273719D01*
X140595967Y-106169532D01*
X140789054Y-105976782D01*
X140893681Y-105724813D01*
X140893919Y-105451984D01*
X140789732Y-105199833D01*
X140596982Y-105006746D01*
X140345013Y-104902119D01*
X140072184Y-104901881D01*
X139820033Y-105006068D01*
X139644394Y-105181400D01*
X127623314Y-105181400D01*
X127467791Y-105212335D01*
X127335946Y-105300432D01*
X123846796Y-108789582D01*
X122789788Y-108791870D01*
X122628444Y-108724874D01*
X122229307Y-108724526D01*
X122062514Y-108793444D01*
X120262959Y-108797339D01*
X120088444Y-108724874D01*
X119689307Y-108724526D01*
X119509138Y-108798971D01*
X117736131Y-108802808D01*
X117548444Y-108724874D01*
X117149307Y-108724526D01*
X116955762Y-108804497D01*
X115209303Y-108808278D01*
X115008444Y-108724874D01*
X114609307Y-108724526D01*
X114402386Y-108810024D01*
X112750380Y-108813600D01*
X112710578Y-108821815D01*
X112707307Y-108824059D01*
X112468444Y-108724874D01*
X112069307Y-108724526D01*
X111700419Y-108876948D01*
X111417939Y-109158934D01*
X111264874Y-109527556D01*
X111264526Y-109926693D01*
X111331787Y-110089477D01*
X107337514Y-114083750D01*
X107337511Y-114083752D01*
X105702632Y-115718632D01*
X105614535Y-115850477D01*
X105583600Y-116006000D01*
X105583600Y-116560600D01*
X103896400Y-116560600D01*
X103896400Y-109926693D01*
X108724526Y-109926693D01*
X108876948Y-110295581D01*
X109158934Y-110578061D01*
X109527556Y-110731126D01*
X109926693Y-110731474D01*
X110295581Y-110579052D01*
X110578061Y-110297066D01*
X110731126Y-109928444D01*
X110731474Y-109529307D01*
X110579052Y-109160419D01*
X110297066Y-108877939D01*
X109928444Y-108724874D01*
X109529307Y-108724526D01*
X109160419Y-108876948D01*
X108877939Y-109158934D01*
X108724874Y-109527556D01*
X108724526Y-109926693D01*
X103896400Y-109926693D01*
X103896400Y-109896797D01*
X103865465Y-109741274D01*
X103777368Y-109609429D01*
X103276400Y-109108461D01*
X103276400Y-107894693D01*
X103390526Y-107894693D01*
X103542948Y-108263581D01*
X103824934Y-108546061D01*
X104193556Y-108699126D01*
X104592693Y-108699474D01*
X104961581Y-108547052D01*
X105244061Y-108265066D01*
X105397126Y-107896444D01*
X105397474Y-107497307D01*
X105245052Y-107128419D01*
X104963066Y-106845939D01*
X104594444Y-106692874D01*
X104195307Y-106692526D01*
X103826419Y-106844948D01*
X103543939Y-107126934D01*
X103390874Y-107495556D01*
X103390526Y-107894693D01*
X103276400Y-107894693D01*
X103276400Y-105354693D01*
X103390526Y-105354693D01*
X103542948Y-105723581D01*
X103824934Y-106006061D01*
X104193556Y-106159126D01*
X104592693Y-106159474D01*
X104961581Y-106007052D01*
X105244061Y-105725066D01*
X105397126Y-105356444D01*
X105397474Y-104957307D01*
X105245052Y-104588419D01*
X104963066Y-104305939D01*
X104594444Y-104152874D01*
X104195307Y-104152526D01*
X103826419Y-104304948D01*
X103543939Y-104586934D01*
X103390874Y-104955556D01*
X103390526Y-105354693D01*
X103276400Y-105354693D01*
X103276400Y-104308336D01*
X104032491Y-103552246D01*
X104193556Y-103619126D01*
X104592693Y-103619474D01*
X104961581Y-103467052D01*
X105244061Y-103185066D01*
X105397126Y-102816444D01*
X105397474Y-102417307D01*
X105245052Y-102048419D01*
X104963066Y-101765939D01*
X104594444Y-101612874D01*
X104195307Y-101612526D01*
X103826419Y-101764948D01*
X103543939Y-102046934D01*
X103390874Y-102415556D01*
X103390526Y-102814693D01*
X103457787Y-102977476D01*
X102582632Y-103852632D01*
X102494535Y-103984477D01*
X102463600Y-104140000D01*
X102463600Y-109276797D01*
X102494535Y-109432320D01*
X102564138Y-109536487D01*
X102582632Y-109564165D01*
X103083600Y-110065133D01*
X103083600Y-116560600D01*
X101396400Y-116560600D01*
X101396400Y-106832000D01*
X101365465Y-106676477D01*
X101277368Y-106544632D01*
X97710246Y-102977510D01*
X97777126Y-102816444D01*
X97777474Y-102417307D01*
X97625052Y-102048419D01*
X97343066Y-101765939D01*
X96974444Y-101612874D01*
X96575307Y-101612526D01*
X96206419Y-101764948D01*
X95923939Y-102046934D01*
X95770874Y-102415556D01*
X95770526Y-102814693D01*
X95922948Y-103183581D01*
X96204934Y-103466061D01*
X96573556Y-103619126D01*
X96972693Y-103619474D01*
X97135477Y-103552213D01*
X100583600Y-107000336D01*
X100583600Y-116560600D01*
X92837000Y-116560600D01*
X92837000Y-108632107D01*
X96053419Y-108632107D01*
X96118484Y-108857519D01*
X96612876Y-109019958D01*
X97131798Y-108980838D01*
X97429516Y-108857519D01*
X97494581Y-108632107D01*
X96774000Y-107911526D01*
X96053419Y-108632107D01*
X92837000Y-108632107D01*
X92837000Y-107534876D01*
X95450042Y-107534876D01*
X95489162Y-108053798D01*
X95612481Y-108351516D01*
X95837893Y-108416581D01*
X96558474Y-107696000D01*
X96989526Y-107696000D01*
X97710107Y-108416581D01*
X97935519Y-108351516D01*
X98097958Y-107857124D01*
X98058838Y-107338202D01*
X97935519Y-107040484D01*
X97710107Y-106975419D01*
X96989526Y-107696000D01*
X96558474Y-107696000D01*
X95837893Y-106975419D01*
X95612481Y-107040484D01*
X95450042Y-107534876D01*
X92837000Y-107534876D01*
X92837000Y-106759893D01*
X96053419Y-106759893D01*
X96774000Y-107480474D01*
X97494581Y-106759893D01*
X97429516Y-106534481D01*
X96935124Y-106372042D01*
X96416202Y-106411162D01*
X96118484Y-106534481D01*
X96053419Y-106759893D01*
X92837000Y-106759893D01*
X92837000Y-105354693D01*
X95770526Y-105354693D01*
X95922948Y-105723581D01*
X96204934Y-106006061D01*
X96573556Y-106159126D01*
X96972693Y-106159474D01*
X97341581Y-106007052D01*
X97624061Y-105725066D01*
X97777126Y-105356444D01*
X97777474Y-104957307D01*
X97625052Y-104588419D01*
X97343066Y-104305939D01*
X96974444Y-104152874D01*
X96575307Y-104152526D01*
X96206419Y-104304948D01*
X95923939Y-104586934D01*
X95770874Y-104955556D01*
X95770526Y-105354693D01*
X92837000Y-105354693D01*
X92837000Y-101371400D01*
X94259400Y-101371400D01*
X94298281Y-101363666D01*
X94331242Y-101341642D01*
X94353266Y-101308681D01*
X94360997Y-101269018D01*
X94346447Y-99377500D01*
X95764729Y-99377500D01*
X95764729Y-100774500D01*
X95788385Y-100893427D01*
X95855752Y-100994248D01*
X95956573Y-101061615D01*
X96075500Y-101085271D01*
X97472500Y-101085271D01*
X97591427Y-101061615D01*
X97692248Y-100994248D01*
X97759615Y-100893427D01*
X97783271Y-100774500D01*
X97783271Y-100274693D01*
X103390526Y-100274693D01*
X103542948Y-100643581D01*
X103824934Y-100926061D01*
X104193556Y-101079126D01*
X104592693Y-101079474D01*
X104961581Y-100927052D01*
X105244061Y-100645066D01*
X105397126Y-100276444D01*
X105397474Y-99877307D01*
X105245052Y-99508419D01*
X104963066Y-99225939D01*
X104594444Y-99072874D01*
X104195307Y-99072526D01*
X103826419Y-99224948D01*
X103543939Y-99506934D01*
X103390874Y-99875556D01*
X103390526Y-100274693D01*
X97783271Y-100274693D01*
X97783271Y-99377500D01*
X97759615Y-99258573D01*
X97692248Y-99157752D01*
X97591427Y-99090385D01*
X97472500Y-99066729D01*
X96075500Y-99066729D01*
X95956573Y-99090385D01*
X95855752Y-99157752D01*
X95788385Y-99258573D01*
X95764729Y-99377500D01*
X94346447Y-99377500D01*
X94316037Y-95424107D01*
X109007419Y-95424107D01*
X109072484Y-95649519D01*
X109566876Y-95811958D01*
X110085798Y-95772838D01*
X110383516Y-95649519D01*
X110448581Y-95424107D01*
X109728000Y-94703526D01*
X109007419Y-95424107D01*
X94316037Y-95424107D01*
X94310985Y-94767400D01*
X99161600Y-94767400D01*
X99200481Y-94759666D01*
X99233442Y-94737642D01*
X99255466Y-94704681D01*
X99263200Y-94665800D01*
X99263200Y-94326876D01*
X108404042Y-94326876D01*
X108443162Y-94845798D01*
X108566481Y-95143516D01*
X108791893Y-95208581D01*
X109512474Y-94488000D01*
X109943526Y-94488000D01*
X110664107Y-95208581D01*
X110889519Y-95143516D01*
X111039614Y-94686693D01*
X111264526Y-94686693D01*
X111416948Y-95055581D01*
X111698934Y-95338061D01*
X112067556Y-95491126D01*
X112466693Y-95491474D01*
X112835581Y-95339052D01*
X113118061Y-95057066D01*
X113271126Y-94688444D01*
X113271127Y-94686693D01*
X113804526Y-94686693D01*
X113956948Y-95055581D01*
X114238934Y-95338061D01*
X114607556Y-95491126D01*
X115006693Y-95491474D01*
X115375581Y-95339052D01*
X115658061Y-95057066D01*
X115811126Y-94688444D01*
X115811127Y-94686693D01*
X116344526Y-94686693D01*
X116496948Y-95055581D01*
X116778934Y-95338061D01*
X117147556Y-95491126D01*
X117546693Y-95491474D01*
X117915581Y-95339052D01*
X118198061Y-95057066D01*
X118351126Y-94688444D01*
X118351127Y-94686693D01*
X118884526Y-94686693D01*
X119036948Y-95055581D01*
X119318934Y-95338061D01*
X119687556Y-95491126D01*
X120086693Y-95491474D01*
X120455581Y-95339052D01*
X120738061Y-95057066D01*
X120891126Y-94688444D01*
X120891127Y-94686693D01*
X121424526Y-94686693D01*
X121576948Y-95055581D01*
X121858934Y-95338061D01*
X122227556Y-95491126D01*
X122626693Y-95491474D01*
X122995581Y-95339052D01*
X123278061Y-95057066D01*
X123431126Y-94688444D01*
X123431127Y-94686693D01*
X123964526Y-94686693D01*
X124116948Y-95055581D01*
X124398934Y-95338061D01*
X124767556Y-95491126D01*
X125166693Y-95491474D01*
X125535581Y-95339052D01*
X125818061Y-95057066D01*
X125971126Y-94688444D01*
X125971127Y-94686693D01*
X126504526Y-94686693D01*
X126656948Y-95055581D01*
X126938934Y-95338061D01*
X127307556Y-95491126D01*
X127706693Y-95491474D01*
X128075581Y-95339052D01*
X128358061Y-95057066D01*
X128511126Y-94688444D01*
X128511127Y-94686693D01*
X129044526Y-94686693D01*
X129196948Y-95055581D01*
X129478934Y-95338061D01*
X129847556Y-95491126D01*
X130246693Y-95491474D01*
X130615581Y-95339052D01*
X130898061Y-95057066D01*
X131051126Y-94688444D01*
X131051127Y-94686693D01*
X131584526Y-94686693D01*
X131736948Y-95055581D01*
X132018934Y-95338061D01*
X132387556Y-95491126D01*
X132786693Y-95491474D01*
X133155581Y-95339052D01*
X133438061Y-95057066D01*
X133591126Y-94688444D01*
X133591127Y-94686693D01*
X134124526Y-94686693D01*
X134276948Y-95055581D01*
X134558934Y-95338061D01*
X134927556Y-95491126D01*
X135326693Y-95491474D01*
X135695581Y-95339052D01*
X135978061Y-95057066D01*
X136131126Y-94688444D01*
X136131127Y-94686693D01*
X136664526Y-94686693D01*
X136816948Y-95055581D01*
X137098934Y-95338061D01*
X137467556Y-95491126D01*
X137866693Y-95491474D01*
X138235581Y-95339052D01*
X138518061Y-95057066D01*
X138671126Y-94688444D01*
X138671127Y-94686693D01*
X139204526Y-94686693D01*
X139356948Y-95055581D01*
X139638934Y-95338061D01*
X140007556Y-95491126D01*
X140406693Y-95491474D01*
X140775581Y-95339052D01*
X141058061Y-95057066D01*
X141211126Y-94688444D01*
X141211474Y-94289307D01*
X141059052Y-93920419D01*
X140928362Y-93789500D01*
X141738729Y-93789500D01*
X141738729Y-95186500D01*
X141762385Y-95305427D01*
X141829752Y-95406248D01*
X141930573Y-95473615D01*
X142049500Y-95497271D01*
X143446500Y-95497271D01*
X143565427Y-95473615D01*
X143666248Y-95406248D01*
X143733615Y-95305427D01*
X143757271Y-95186500D01*
X143757271Y-93789500D01*
X143733615Y-93670573D01*
X143666248Y-93569752D01*
X143565427Y-93502385D01*
X143446500Y-93478729D01*
X142049500Y-93478729D01*
X141930573Y-93502385D01*
X141829752Y-93569752D01*
X141762385Y-93670573D01*
X141738729Y-93789500D01*
X140928362Y-93789500D01*
X140777066Y-93637939D01*
X140408444Y-93484874D01*
X140009307Y-93484526D01*
X139640419Y-93636948D01*
X139357939Y-93918934D01*
X139204874Y-94287556D01*
X139204526Y-94686693D01*
X138671127Y-94686693D01*
X138671474Y-94289307D01*
X138519052Y-93920419D01*
X138237066Y-93637939D01*
X137868444Y-93484874D01*
X137469307Y-93484526D01*
X137100419Y-93636948D01*
X136817939Y-93918934D01*
X136664874Y-94287556D01*
X136664526Y-94686693D01*
X136131127Y-94686693D01*
X136131474Y-94289307D01*
X135979052Y-93920419D01*
X135697066Y-93637939D01*
X135328444Y-93484874D01*
X134929307Y-93484526D01*
X134560419Y-93636948D01*
X134277939Y-93918934D01*
X134124874Y-94287556D01*
X134124526Y-94686693D01*
X133591127Y-94686693D01*
X133591474Y-94289307D01*
X133439052Y-93920419D01*
X133157066Y-93637939D01*
X132788444Y-93484874D01*
X132389307Y-93484526D01*
X132020419Y-93636948D01*
X131737939Y-93918934D01*
X131584874Y-94287556D01*
X131584526Y-94686693D01*
X131051127Y-94686693D01*
X131051474Y-94289307D01*
X130899052Y-93920419D01*
X130617066Y-93637939D01*
X130248444Y-93484874D01*
X129849307Y-93484526D01*
X129480419Y-93636948D01*
X129197939Y-93918934D01*
X129044874Y-94287556D01*
X129044526Y-94686693D01*
X128511127Y-94686693D01*
X128511474Y-94289307D01*
X128359052Y-93920419D01*
X128077066Y-93637939D01*
X127708444Y-93484874D01*
X127309307Y-93484526D01*
X126940419Y-93636948D01*
X126657939Y-93918934D01*
X126504874Y-94287556D01*
X126504526Y-94686693D01*
X125971127Y-94686693D01*
X125971474Y-94289307D01*
X125819052Y-93920419D01*
X125537066Y-93637939D01*
X125168444Y-93484874D01*
X124769307Y-93484526D01*
X124400419Y-93636948D01*
X124117939Y-93918934D01*
X123964874Y-94287556D01*
X123964526Y-94686693D01*
X123431127Y-94686693D01*
X123431474Y-94289307D01*
X123279052Y-93920419D01*
X122997066Y-93637939D01*
X122628444Y-93484874D01*
X122229307Y-93484526D01*
X121860419Y-93636948D01*
X121577939Y-93918934D01*
X121424874Y-94287556D01*
X121424526Y-94686693D01*
X120891127Y-94686693D01*
X120891474Y-94289307D01*
X120739052Y-93920419D01*
X120457066Y-93637939D01*
X120088444Y-93484874D01*
X119689307Y-93484526D01*
X119320419Y-93636948D01*
X119037939Y-93918934D01*
X118884874Y-94287556D01*
X118884526Y-94686693D01*
X118351127Y-94686693D01*
X118351474Y-94289307D01*
X118199052Y-93920419D01*
X117917066Y-93637939D01*
X117548444Y-93484874D01*
X117149307Y-93484526D01*
X116780419Y-93636948D01*
X116497939Y-93918934D01*
X116344874Y-94287556D01*
X116344526Y-94686693D01*
X115811127Y-94686693D01*
X115811474Y-94289307D01*
X115659052Y-93920419D01*
X115377066Y-93637939D01*
X115008444Y-93484874D01*
X114609307Y-93484526D01*
X114240419Y-93636948D01*
X113957939Y-93918934D01*
X113804874Y-94287556D01*
X113804526Y-94686693D01*
X113271127Y-94686693D01*
X113271474Y-94289307D01*
X113119052Y-93920419D01*
X112837066Y-93637939D01*
X112468444Y-93484874D01*
X112069307Y-93484526D01*
X111700419Y-93636948D01*
X111417939Y-93918934D01*
X111264874Y-94287556D01*
X111264526Y-94686693D01*
X111039614Y-94686693D01*
X111051958Y-94649124D01*
X111012838Y-94130202D01*
X110889519Y-93832484D01*
X110664107Y-93767419D01*
X109943526Y-94488000D01*
X109512474Y-94488000D01*
X108791893Y-93767419D01*
X108566481Y-93832484D01*
X108404042Y-94326876D01*
X99263200Y-94326876D01*
X99263200Y-93551893D01*
X109007419Y-93551893D01*
X109728000Y-94272474D01*
X110448581Y-93551893D01*
X110383516Y-93326481D01*
X109889124Y-93164042D01*
X109370202Y-93203162D01*
X109072484Y-93326481D01*
X109007419Y-93551893D01*
X99263200Y-93551893D01*
X99263200Y-91770200D01*
X190220600Y-91770200D01*
X190220600Y-98628200D01*
G36*
X159880299Y-94428752D02*
X159880299Y-103263699D01*
X159911234Y-103419222D01*
X159999331Y-103551067D01*
X161713832Y-105265569D01*
X161845678Y-105353666D01*
X162001200Y-105384600D01*
X167243064Y-105384600D01*
X168503600Y-106645137D01*
X168503600Y-109064349D01*
X168342419Y-109130948D01*
X168059939Y-109412934D01*
X167906874Y-109781556D01*
X167906780Y-109888930D01*
X167712482Y-109694632D01*
X167705402Y-109689901D01*
X167580637Y-109606535D01*
X167425114Y-109575600D01*
X167287651Y-109575600D01*
X167221052Y-109414419D01*
X166939066Y-109131939D01*
X166570444Y-108978874D01*
X166171307Y-108978526D01*
X165802419Y-109130948D01*
X165519939Y-109412934D01*
X165366874Y-109781556D01*
X165366526Y-110180693D01*
X165518948Y-110549581D01*
X165800934Y-110832061D01*
X166169556Y-110985126D01*
X166568693Y-110985474D01*
X166937581Y-110833052D01*
X167220061Y-110551066D01*
X167278561Y-110410183D01*
X167891758Y-111023380D01*
X164520194Y-111023380D01*
X164550581Y-110918107D01*
X163830000Y-110197526D01*
X163109419Y-110918107D01*
X163139806Y-111023380D01*
X162906116Y-111023380D01*
X162226246Y-110343510D01*
X162293126Y-110182444D01*
X162293441Y-109820876D01*
X162506042Y-109820876D01*
X162545162Y-110339798D01*
X162668481Y-110637516D01*
X162893893Y-110702581D01*
X163614474Y-109982000D01*
X164045526Y-109982000D01*
X164766107Y-110702581D01*
X164991519Y-110637516D01*
X165153958Y-110143124D01*
X165114838Y-109624202D01*
X164991519Y-109326484D01*
X164766107Y-109261419D01*
X164045526Y-109982000D01*
X163614474Y-109982000D01*
X162893893Y-109261419D01*
X162668481Y-109326484D01*
X162506042Y-109820876D01*
X162293441Y-109820876D01*
X162293474Y-109783307D01*
X162141052Y-109414419D01*
X161859066Y-109131939D01*
X161651844Y-109045893D01*
X163109419Y-109045893D01*
X163830000Y-109766474D01*
X164550581Y-109045893D01*
X164485516Y-108820481D01*
X163991124Y-108658042D01*
X163472202Y-108697162D01*
X163174484Y-108820481D01*
X163109419Y-109045893D01*
X161651844Y-109045893D01*
X161490444Y-108978874D01*
X161091307Y-108978526D01*
X160722419Y-109130948D01*
X160439939Y-109412934D01*
X160286874Y-109781556D01*
X160286722Y-109956158D01*
X160025196Y-109694632D01*
X160018116Y-109689901D01*
X159893351Y-109606535D01*
X159737828Y-109575600D01*
X159667651Y-109575600D01*
X159601052Y-109414419D01*
X159319066Y-109131939D01*
X158950444Y-108978874D01*
X158551307Y-108978526D01*
X158182419Y-109130948D01*
X157899939Y-109412934D01*
X157746874Y-109781556D01*
X157746526Y-110180693D01*
X157898948Y-110549581D01*
X158180934Y-110832061D01*
X158549556Y-110985126D01*
X158948693Y-110985474D01*
X159317581Y-110833052D01*
X159600061Y-110551066D01*
X159638819Y-110457727D01*
X161017292Y-111836200D01*
X158638936Y-111836200D01*
X157146246Y-110343510D01*
X157213126Y-110182444D01*
X157213474Y-109783307D01*
X157061052Y-109414419D01*
X156779066Y-109131939D01*
X156410444Y-108978874D01*
X156011307Y-108978526D01*
X155642419Y-109130948D01*
X155359939Y-109412934D01*
X155206874Y-109781556D01*
X155206526Y-110180693D01*
X155358948Y-110549581D01*
X155640934Y-110832061D01*
X156009556Y-110985126D01*
X156408693Y-110985474D01*
X156571477Y-110918213D01*
X157895874Y-112242610D01*
X156505346Y-112242610D01*
X154606246Y-110343510D01*
X154673126Y-110182444D01*
X154673474Y-109783307D01*
X154521052Y-109414419D01*
X154239066Y-109131939D01*
X153870444Y-108978874D01*
X153471307Y-108978526D01*
X153102419Y-109130948D01*
X152819939Y-109412934D01*
X152666874Y-109781556D01*
X152666526Y-110180693D01*
X152818948Y-110549581D01*
X153100934Y-110832061D01*
X153469556Y-110985126D01*
X153868693Y-110985474D01*
X154031477Y-110918213D01*
X155762283Y-112649019D01*
X154371755Y-112649019D01*
X152066246Y-110343510D01*
X152133126Y-110182444D01*
X152133474Y-109783307D01*
X151981052Y-109414419D01*
X151699066Y-109131939D01*
X151330444Y-108978874D01*
X150931307Y-108978526D01*
X150562419Y-109130948D01*
X150533099Y-109160217D01*
X150533099Y-95922778D01*
X150968876Y-96065958D01*
X151487798Y-96026838D01*
X151785516Y-95903519D01*
X151850581Y-95678107D01*
X151130000Y-94957526D01*
X151115858Y-94971669D01*
X150900332Y-94756143D01*
X150914474Y-94742000D01*
X150900332Y-94727858D01*
X151115858Y-94512332D01*
X151130000Y-94526474D01*
X151144143Y-94512332D01*
X151359669Y-94727858D01*
X151345526Y-94742000D01*
X152066107Y-95462581D01*
X152291519Y-95397516D01*
X152453958Y-94903124D01*
X152414838Y-94384202D01*
X152315798Y-94145099D01*
X152498363Y-94145099D01*
X152733754Y-94380490D01*
X152666874Y-94541556D01*
X152666526Y-94940693D01*
X152818948Y-95309581D01*
X153100934Y-95592061D01*
X153469556Y-95745126D01*
X153868693Y-95745474D01*
X154237581Y-95593052D01*
X154520061Y-95311066D01*
X154673126Y-94942444D01*
X154673474Y-94543307D01*
X154521052Y-94174419D01*
X154239066Y-93891939D01*
X153870444Y-93738874D01*
X153658259Y-93738689D01*
X154631953Y-93738689D01*
X155273754Y-94380490D01*
X155206874Y-94541556D01*
X155206526Y-94940693D01*
X155358948Y-95309581D01*
X155640934Y-95592061D01*
X156009556Y-95745126D01*
X156408693Y-95745474D01*
X156777581Y-95593052D01*
X157060061Y-95311066D01*
X157213126Y-94942444D01*
X157213474Y-94543307D01*
X157061052Y-94174419D01*
X156779066Y-93891939D01*
X156410444Y-93738874D01*
X156011307Y-93738526D01*
X155848523Y-93805787D01*
X155375015Y-93332279D01*
X156765543Y-93332279D01*
X157813754Y-94380490D01*
X157746874Y-94541556D01*
X157746526Y-94940693D01*
X157898948Y-95309581D01*
X158180934Y-95592061D01*
X158549556Y-95745126D01*
X158948693Y-95745474D01*
X159317581Y-95593052D01*
X159600061Y-95311066D01*
X159753126Y-94942444D01*
X159753474Y-94543307D01*
X159601052Y-94174419D01*
X159319066Y-93891939D01*
X158950444Y-93738874D01*
X158551307Y-93738526D01*
X158388523Y-93805787D01*
X157508605Y-92925869D01*
X158377417Y-92925869D01*
X159880299Y-94428752D01*
X159880299Y-94428752D01*
G37*
X159880299Y-94428752D02*
X159880299Y-103263699D01*
X159911234Y-103419222D01*
X159999331Y-103551067D01*
X161713832Y-105265569D01*
X161845678Y-105353666D01*
X162001200Y-105384600D01*
X167243064Y-105384600D01*
X168503600Y-106645137D01*
X168503600Y-109064349D01*
X168342419Y-109130948D01*
X168059939Y-109412934D01*
X167906874Y-109781556D01*
X167906780Y-109888930D01*
X167712482Y-109694632D01*
X167705402Y-109689901D01*
X167580637Y-109606535D01*
X167425114Y-109575600D01*
X167287651Y-109575600D01*
X167221052Y-109414419D01*
X166939066Y-109131939D01*
X166570444Y-108978874D01*
X166171307Y-108978526D01*
X165802419Y-109130948D01*
X165519939Y-109412934D01*
X165366874Y-109781556D01*
X165366526Y-110180693D01*
X165518948Y-110549581D01*
X165800934Y-110832061D01*
X166169556Y-110985126D01*
X166568693Y-110985474D01*
X166937581Y-110833052D01*
X167220061Y-110551066D01*
X167278561Y-110410183D01*
X167891758Y-111023380D01*
X164520194Y-111023380D01*
X164550581Y-110918107D01*
X163830000Y-110197526D01*
X163109419Y-110918107D01*
X163139806Y-111023380D01*
X162906116Y-111023380D01*
X162226246Y-110343510D01*
X162293126Y-110182444D01*
X162293441Y-109820876D01*
X162506042Y-109820876D01*
X162545162Y-110339798D01*
X162668481Y-110637516D01*
X162893893Y-110702581D01*
X163614474Y-109982000D01*
X164045526Y-109982000D01*
X164766107Y-110702581D01*
X164991519Y-110637516D01*
X165153958Y-110143124D01*
X165114838Y-109624202D01*
X164991519Y-109326484D01*
X164766107Y-109261419D01*
X164045526Y-109982000D01*
X163614474Y-109982000D01*
X162893893Y-109261419D01*
X162668481Y-109326484D01*
X162506042Y-109820876D01*
X162293441Y-109820876D01*
X162293474Y-109783307D01*
X162141052Y-109414419D01*
X161859066Y-109131939D01*
X161651844Y-109045893D01*
X163109419Y-109045893D01*
X163830000Y-109766474D01*
X164550581Y-109045893D01*
X164485516Y-108820481D01*
X163991124Y-108658042D01*
X163472202Y-108697162D01*
X163174484Y-108820481D01*
X163109419Y-109045893D01*
X161651844Y-109045893D01*
X161490444Y-108978874D01*
X161091307Y-108978526D01*
X160722419Y-109130948D01*
X160439939Y-109412934D01*
X160286874Y-109781556D01*
X160286722Y-109956158D01*
X160025196Y-109694632D01*
X160018116Y-109689901D01*
X159893351Y-109606535D01*
X159737828Y-109575600D01*
X159667651Y-109575600D01*
X159601052Y-109414419D01*
X159319066Y-109131939D01*
X158950444Y-108978874D01*
X158551307Y-108978526D01*
X158182419Y-109130948D01*
X157899939Y-109412934D01*
X157746874Y-109781556D01*
X157746526Y-110180693D01*
X157898948Y-110549581D01*
X158180934Y-110832061D01*
X158549556Y-110985126D01*
X158948693Y-110985474D01*
X159317581Y-110833052D01*
X159600061Y-110551066D01*
X159638819Y-110457727D01*
X161017292Y-111836200D01*
X158638936Y-111836200D01*
X157146246Y-110343510D01*
X157213126Y-110182444D01*
X157213474Y-109783307D01*
X157061052Y-109414419D01*
X156779066Y-109131939D01*
X156410444Y-108978874D01*
X156011307Y-108978526D01*
X155642419Y-109130948D01*
X155359939Y-109412934D01*
X155206874Y-109781556D01*
X155206526Y-110180693D01*
X155358948Y-110549581D01*
X155640934Y-110832061D01*
X156009556Y-110985126D01*
X156408693Y-110985474D01*
X156571477Y-110918213D01*
X157895874Y-112242610D01*
X156505346Y-112242610D01*
X154606246Y-110343510D01*
X154673126Y-110182444D01*
X154673474Y-109783307D01*
X154521052Y-109414419D01*
X154239066Y-109131939D01*
X153870444Y-108978874D01*
X153471307Y-108978526D01*
X153102419Y-109130948D01*
X152819939Y-109412934D01*
X152666874Y-109781556D01*
X152666526Y-110180693D01*
X152818948Y-110549581D01*
X153100934Y-110832061D01*
X153469556Y-110985126D01*
X153868693Y-110985474D01*
X154031477Y-110918213D01*
X155762283Y-112649019D01*
X154371755Y-112649019D01*
X152066246Y-110343510D01*
X152133126Y-110182444D01*
X152133474Y-109783307D01*
X151981052Y-109414419D01*
X151699066Y-109131939D01*
X151330444Y-108978874D01*
X150931307Y-108978526D01*
X150562419Y-109130948D01*
X150533099Y-109160217D01*
X150533099Y-95922778D01*
X150968876Y-96065958D01*
X151487798Y-96026838D01*
X151785516Y-95903519D01*
X151850581Y-95678107D01*
X151130000Y-94957526D01*
X151115858Y-94971669D01*
X150900332Y-94756143D01*
X150914474Y-94742000D01*
X150900332Y-94727858D01*
X151115858Y-94512332D01*
X151130000Y-94526474D01*
X151144143Y-94512332D01*
X151359669Y-94727858D01*
X151345526Y-94742000D01*
X152066107Y-95462581D01*
X152291519Y-95397516D01*
X152453958Y-94903124D01*
X152414838Y-94384202D01*
X152315798Y-94145099D01*
X152498363Y-94145099D01*
X152733754Y-94380490D01*
X152666874Y-94541556D01*
X152666526Y-94940693D01*
X152818948Y-95309581D01*
X153100934Y-95592061D01*
X153469556Y-95745126D01*
X153868693Y-95745474D01*
X154237581Y-95593052D01*
X154520061Y-95311066D01*
X154673126Y-94942444D01*
X154673474Y-94543307D01*
X154521052Y-94174419D01*
X154239066Y-93891939D01*
X153870444Y-93738874D01*
X153658259Y-93738689D01*
X154631953Y-93738689D01*
X155273754Y-94380490D01*
X155206874Y-94541556D01*
X155206526Y-94940693D01*
X155358948Y-95309581D01*
X155640934Y-95592061D01*
X156009556Y-95745126D01*
X156408693Y-95745474D01*
X156777581Y-95593052D01*
X157060061Y-95311066D01*
X157213126Y-94942444D01*
X157213474Y-94543307D01*
X157061052Y-94174419D01*
X156779066Y-93891939D01*
X156410444Y-93738874D01*
X156011307Y-93738526D01*
X155848523Y-93805787D01*
X155375015Y-93332279D01*
X156765543Y-93332279D01*
X157813754Y-94380490D01*
X157746874Y-94541556D01*
X157746526Y-94940693D01*
X157898948Y-95309581D01*
X158180934Y-95592061D01*
X158549556Y-95745126D01*
X158948693Y-95745474D01*
X159317581Y-95593052D01*
X159600061Y-95311066D01*
X159753126Y-94942444D01*
X159753474Y-94543307D01*
X159601052Y-94174419D01*
X159319066Y-93891939D01*
X158950444Y-93738874D01*
X158551307Y-93738526D01*
X158388523Y-93805787D01*
X157508605Y-92925869D01*
X158377417Y-92925869D01*
X159880299Y-94428752D01*
M02*
