G04 #@! TF.GenerationSoftware,KiCad,Pcbnew,(2016-12-22 revision d365dc590)-master*
G04 #@! TF.CreationDate,2016-12-28T11:12:27+01:00*
G04 #@! TF.ProjectId,mojo-nes,6D6F6A6F2D6E65732E6B696361645F70,rev?*
G04 #@! TF.FileFunction,Copper,L1,Top,Signal*
G04 #@! TF.FilePolarity,Positive*
%FSLAX46Y46*%
G04 Gerber Fmt 4.6, Leading zero omitted, Abs format (unit mm)*
G04 Created by KiCad (PCBNEW (2016-12-22 revision d365dc590)-master) date Wed Dec 28 11:12:27 2016*
%MOMM*%
%LPD*%
G01*
G04 APERTURE LIST*
%ADD10C,0.100000*%
%ADD11R,1.000000X1.250000*%
%ADD12R,1.250000X1.000000*%
%ADD13R,1.397000X1.397000*%
%ADD14C,1.397000*%
%ADD15R,2.000000X14.000000*%
%ADD16R,1.380000X1.250000*%
%ADD17C,0.889000*%
%ADD18C,0.762000*%
%ADD19C,0.381000*%
%ADD20C,0.762000*%
%ADD21C,0.203200*%
G04 APERTURE END LIST*
D10*
D11*
X142732000Y-112522000D03*
X140732000Y-112522000D03*
X101584000Y-97282000D03*
X99584000Y-97282000D03*
D12*
X184150000Y-112284000D03*
X184150000Y-114284000D03*
D13*
X184150000Y-94742000D03*
D14*
X181610000Y-94742000D03*
X179070000Y-94742000D03*
X176530000Y-94742000D03*
X173990000Y-94742000D03*
X171450000Y-94742000D03*
X168910000Y-94742000D03*
X166370000Y-94742000D03*
X163830000Y-94742000D03*
X161290000Y-94742000D03*
X158750000Y-94742000D03*
X156210000Y-94742000D03*
X153670000Y-94742000D03*
X151130000Y-94742000D03*
X151130000Y-109982000D03*
X153670000Y-109982000D03*
X156210000Y-109982000D03*
X158750000Y-109982000D03*
X161290000Y-109982000D03*
X163830000Y-109982000D03*
X166370000Y-109982000D03*
X168910000Y-109982000D03*
X171450000Y-109982000D03*
X173990000Y-109982000D03*
X176530000Y-109982000D03*
X179070000Y-109982000D03*
X181610000Y-109982000D03*
X184150000Y-109982000D03*
D13*
X142748000Y-94488000D03*
D14*
X140208000Y-94488000D03*
X137668000Y-94488000D03*
X135128000Y-94488000D03*
X132588000Y-94488000D03*
X130048000Y-94488000D03*
X127508000Y-94488000D03*
X124968000Y-94488000D03*
X122428000Y-94488000D03*
X119888000Y-94488000D03*
X117348000Y-94488000D03*
X114808000Y-94488000D03*
X112268000Y-94488000D03*
X109728000Y-94488000D03*
X109728000Y-109728000D03*
X112268000Y-109728000D03*
X114808000Y-109728000D03*
X117348000Y-109728000D03*
X119888000Y-109728000D03*
X122428000Y-109728000D03*
X124968000Y-109728000D03*
X127508000Y-109728000D03*
X130048000Y-109728000D03*
X132588000Y-109728000D03*
X135128000Y-109728000D03*
X137668000Y-109728000D03*
X140208000Y-109728000D03*
X142748000Y-109728000D03*
D13*
X96774000Y-100076000D03*
D14*
X96774000Y-102616000D03*
X96774000Y-105156000D03*
X96774000Y-107696000D03*
X104394000Y-107696000D03*
X104394000Y-105156000D03*
X104394000Y-102616000D03*
X104394000Y-100076000D03*
D15*
X185990000Y-124460000D03*
X183490000Y-124460000D03*
X180990000Y-124460000D03*
X178490000Y-124460000D03*
X175990000Y-124460000D03*
X173490000Y-124460000D03*
X170990000Y-124460000D03*
X168490000Y-124460000D03*
X165990000Y-124460000D03*
X163490000Y-124460000D03*
X160990000Y-124460000D03*
X158490000Y-124460000D03*
X155990000Y-124460000D03*
X153490000Y-124460000D03*
X150990000Y-124460000D03*
X148490000Y-124460000D03*
X145990000Y-124460000D03*
X143490000Y-124460000D03*
X140990000Y-124460000D03*
X138490000Y-124460000D03*
X135990000Y-124460000D03*
X133490000Y-124460000D03*
X130990000Y-124460000D03*
X128490000Y-124460000D03*
X125990000Y-124460000D03*
X123490000Y-124460000D03*
X120990000Y-124460000D03*
X118490000Y-124460000D03*
X115990000Y-124460000D03*
X113490000Y-124460000D03*
X110990000Y-124460000D03*
X108490000Y-124460000D03*
X105990000Y-124460000D03*
X103490000Y-124460000D03*
X100990000Y-124460000D03*
X98490000Y-124460000D03*
D16*
X136248400Y-112522000D03*
X137868400Y-112522000D03*
X136248400Y-115062000D03*
X137868400Y-115062000D03*
D17*
X186055000Y-109728000D03*
X186055000Y-111252000D03*
X186055000Y-114300000D03*
X186055000Y-115697000D03*
X186055000Y-112776000D03*
D18*
X98044000Y-97282000D03*
X147828000Y-106172000D03*
X147828000Y-104648000D03*
X147828000Y-103124000D03*
X147828000Y-101600000D03*
X147828000Y-100076000D03*
X151130000Y-100076000D03*
X151130000Y-101600000D03*
X151130000Y-103124000D03*
X151130000Y-104648000D03*
X151130000Y-106172000D03*
X181711600Y-108381800D03*
X180213000Y-107619800D03*
X141579600Y-107061000D03*
X137388600Y-107746820D03*
X136245600Y-107746820D03*
X139042800Y-106321842D03*
X140208000Y-105587800D03*
D19*
X184150000Y-109982000D02*
X184150000Y-108994172D01*
X184150000Y-112284000D02*
X184150000Y-109982000D01*
X142732000Y-112522000D02*
X142732000Y-109744000D01*
X142732000Y-109744000D02*
X142748000Y-109728000D01*
X104394000Y-100076000D02*
X104378000Y-100076000D01*
X104378000Y-100076000D02*
X101584000Y-97282000D01*
D20*
X101092000Y-103378000D02*
X104394000Y-100076000D01*
X101092000Y-106426000D02*
X101092000Y-103378000D01*
X142748000Y-92481400D02*
X142748000Y-94488000D01*
X105092499Y-99377501D02*
X105092499Y-95567501D01*
X105092499Y-95567501D02*
X108178600Y-92481400D01*
X108178600Y-92481400D02*
X142748000Y-92481400D01*
X104394000Y-100076000D02*
X105092499Y-99377501D01*
X184150000Y-93662500D02*
X184150000Y-94742000D01*
X182968900Y-92481400D02*
X184150000Y-93662500D01*
X142748000Y-92481400D02*
X182968900Y-92481400D01*
X142748000Y-109728000D02*
X142748000Y-94488000D01*
X98490000Y-109028000D02*
X98490000Y-124460000D01*
X100335080Y-107182920D02*
X98490000Y-109028000D01*
X100335080Y-107182920D02*
X101092000Y-106426000D01*
X184150000Y-107567730D02*
X184150000Y-109982000D01*
X184150000Y-108994172D02*
X184150000Y-107567730D01*
X184150000Y-107567730D02*
X184150000Y-94742000D01*
D19*
X184150000Y-114284000D02*
X185912000Y-114284000D01*
X185912000Y-114284000D02*
X185928000Y-114300000D01*
D20*
X185928000Y-112776000D02*
X185928000Y-114300000D01*
X185990000Y-124460000D02*
X185990000Y-115886000D01*
X185990000Y-115886000D02*
X185928000Y-115824000D01*
X185928000Y-114300000D02*
X185928000Y-115824000D01*
X185928000Y-112776000D02*
X185928000Y-111252000D01*
X185928000Y-111252000D02*
X185928000Y-109728000D01*
D19*
X99584000Y-97282000D02*
X98044000Y-97282000D01*
X140732000Y-112522000D02*
X140208000Y-111998000D01*
X140208000Y-111998000D02*
X140208000Y-110820200D01*
X140208000Y-110820200D02*
X140208000Y-109728000D01*
X147828000Y-106172000D02*
X147828000Y-104648000D01*
X147828000Y-103124000D02*
X147828000Y-101600000D01*
X147828000Y-100076000D02*
X151130000Y-100076000D01*
X151130000Y-101600000D02*
X151130000Y-103124000D01*
X151130000Y-104648000D02*
X151130000Y-106172000D01*
D21*
X184150000Y-124460000D02*
X184150000Y-118460000D01*
X183490000Y-117256800D02*
X183490000Y-124460000D01*
X182946800Y-116713600D02*
X183490000Y-117256800D01*
X182946800Y-109617000D02*
X182946800Y-116713600D01*
X181711600Y-108381800D02*
X182946800Y-109617000D01*
X180213000Y-108158615D02*
X180213000Y-107619800D01*
X181610000Y-124460000D02*
X181610000Y-118460000D01*
X180990000Y-117169200D02*
X180990000Y-124460000D01*
X180213000Y-116392200D02*
X180990000Y-117169200D01*
X180213000Y-116392200D02*
X180213000Y-108158615D01*
X178490000Y-117116800D02*
X178490000Y-124460000D01*
X177533301Y-109500415D02*
X177533301Y-116160101D01*
X177533301Y-116160101D02*
X178490000Y-117116800D01*
X177011585Y-108978699D02*
X177533301Y-109500415D01*
X174993301Y-108978699D02*
X177011585Y-108978699D01*
X173990000Y-109982000D02*
X174993301Y-108978699D01*
X175990000Y-117140740D02*
X175990000Y-124460000D01*
X176530000Y-116600740D02*
X175990000Y-117140740D01*
X176530000Y-116600740D02*
X176530000Y-109982000D01*
X178371501Y-95440499D02*
X179070000Y-94742000D01*
X172745400Y-101066600D02*
X178371501Y-95440499D01*
X172745400Y-116012200D02*
X172745400Y-101066600D01*
X173490000Y-116756800D02*
X173490000Y-124460000D01*
X173217720Y-116484520D02*
X173490000Y-116756800D01*
X173217720Y-116484520D02*
X172745400Y-116012200D01*
X175831501Y-95440499D02*
X176530000Y-94742000D01*
X170230800Y-101041200D02*
X175831501Y-95440499D01*
X170230800Y-115900200D02*
X170230800Y-101041200D01*
X170990000Y-116659400D02*
X170990000Y-124460000D01*
X170431460Y-116100860D02*
X170990000Y-116659400D01*
X170431460Y-116100860D02*
X170230800Y-115900200D01*
X173291501Y-95440499D02*
X173990000Y-94742000D01*
X167665400Y-101066600D02*
X173291501Y-95440499D01*
X167665400Y-115951000D02*
X167665400Y-101066600D01*
X168490000Y-116775600D02*
X168490000Y-124460000D01*
X168208960Y-116494560D02*
X168490000Y-116775600D01*
X168208960Y-116494560D02*
X167665400Y-115951000D01*
X165100000Y-101092000D02*
X170751501Y-95440499D01*
X170751501Y-95440499D02*
X171450000Y-94742000D01*
X165100000Y-115986800D02*
X165100000Y-101092000D01*
X165990000Y-116876800D02*
X165990000Y-124460000D01*
X165750120Y-116636920D02*
X165990000Y-116876800D01*
X165750120Y-116636920D02*
X165100000Y-115986800D01*
X162585400Y-101066600D02*
X168211501Y-95440499D01*
X162585400Y-116012200D02*
X162585400Y-101066600D01*
X168211501Y-95440499D02*
X168910000Y-94742000D01*
X163490000Y-116916800D02*
X163490000Y-124460000D01*
X163139000Y-116565800D02*
X163490000Y-116916800D01*
X163139000Y-116565800D02*
X162585400Y-116012200D01*
X165671501Y-95440499D02*
X166370000Y-94742000D01*
X160096200Y-101015800D02*
X165671501Y-95440499D01*
X160096200Y-115900200D02*
X160096200Y-101015800D01*
X160990000Y-116794000D02*
X160990000Y-124460000D01*
X160517840Y-116321840D02*
X160990000Y-116794000D01*
X160517840Y-116321840D02*
X160096200Y-115900200D01*
X163131501Y-95440499D02*
X163830000Y-94742000D01*
X157429200Y-101142800D02*
X163131501Y-95440499D01*
X157429200Y-115936000D02*
X157429200Y-101142800D01*
X158490000Y-116996800D02*
X158490000Y-124460000D01*
X157652600Y-116159400D02*
X158490000Y-116996800D01*
X157652600Y-116159400D02*
X157429200Y-115936000D01*
X160591501Y-95440499D02*
X161290000Y-94742000D01*
X154990800Y-116037600D02*
X154990800Y-101041200D01*
X154990800Y-101041200D02*
X160591501Y-95440499D01*
X155990000Y-117036800D02*
X155990000Y-124460000D01*
X155204040Y-116250840D02*
X155990000Y-117036800D01*
X155204040Y-116250840D02*
X154990800Y-116037600D01*
X136274591Y-116972209D02*
X135990000Y-117256800D01*
X138396583Y-116972209D02*
X136274591Y-116972209D01*
X135990000Y-117256800D02*
X135990000Y-124460000D01*
X141579600Y-113789192D02*
X138396583Y-116972209D01*
X141579600Y-107061000D02*
X141579600Y-113789192D01*
X137908400Y-115062000D02*
X137908400Y-112522000D01*
X133490000Y-124550000D02*
X133490000Y-115176000D01*
X137908400Y-113704000D02*
X137908400Y-112522000D01*
X137871200Y-113741200D02*
X137908400Y-113704000D01*
X134924800Y-113741200D02*
X137871200Y-113741200D01*
X133490000Y-115176000D02*
X134924800Y-113741200D01*
X130990000Y-124480000D02*
X130990000Y-113662800D01*
X133858000Y-95758000D02*
X135128000Y-94488000D01*
X133858000Y-110794800D02*
X133858000Y-95758000D01*
X130990000Y-113662800D02*
X133858000Y-110794800D01*
X131318000Y-110794800D02*
X131318000Y-95758000D01*
X131318000Y-95758000D02*
X132588000Y-94488000D01*
X128490000Y-113622800D02*
X128490000Y-124460000D01*
X128668780Y-113444020D02*
X128490000Y-113622800D01*
X128668780Y-113444020D02*
X131318000Y-110794800D01*
X128778000Y-95758000D02*
X130048000Y-94488000D01*
X128778000Y-110642400D02*
X128778000Y-95758000D01*
X125990000Y-113430400D02*
X125990000Y-124460000D01*
X126392940Y-113027460D02*
X125990000Y-113430400D01*
X126392940Y-113027460D02*
X128778000Y-110642400D01*
X126238000Y-95758000D02*
X127508000Y-94488000D01*
X126238000Y-110744000D02*
X126238000Y-95758000D01*
X123490000Y-113492000D02*
X123490000Y-124460000D01*
X124152407Y-112829593D02*
X123490000Y-113492000D01*
X124152407Y-112829593D02*
X126238000Y-110744000D01*
X123698000Y-95758000D02*
X124968000Y-94488000D01*
X123698000Y-110744000D02*
X123698000Y-95758000D01*
X120990000Y-113452000D02*
X120990000Y-124460000D01*
X121399455Y-113042545D02*
X120990000Y-113452000D01*
X121399455Y-113042545D02*
X123698000Y-110744000D01*
X121158000Y-110680500D02*
X121158000Y-95758000D01*
X121158000Y-95758000D02*
X122428000Y-94488000D01*
X118490000Y-113348500D02*
X118490000Y-124460000D01*
X119896890Y-111941610D02*
X118490000Y-113348500D01*
X119896890Y-111941610D02*
X121158000Y-110680500D01*
X118618000Y-110680500D02*
X118618000Y-95758000D01*
X118618000Y-95758000D02*
X119888000Y-94488000D01*
X115990000Y-113308500D02*
X115990000Y-124460000D01*
X117158770Y-112139730D02*
X115990000Y-113308500D01*
X117158770Y-112139730D02*
X118618000Y-110680500D01*
X116078000Y-110680500D02*
X116078000Y-95758000D01*
X116078000Y-95758000D02*
X117348000Y-94488000D01*
X113490000Y-113268500D02*
X113490000Y-124460000D01*
X114750850Y-112007650D02*
X113490000Y-113268500D01*
X114750850Y-112007650D02*
X116078000Y-110680500D01*
X113538000Y-110680500D02*
X113538000Y-95758000D01*
X113538000Y-95758000D02*
X114808000Y-94488000D01*
X110990000Y-113228500D02*
X110990000Y-124460000D01*
X112048290Y-112170210D02*
X110990000Y-113228500D01*
X112048290Y-112170210D02*
X113538000Y-110680500D01*
X110998000Y-95758000D02*
X112268000Y-94488000D01*
X110998000Y-111125000D02*
X110998000Y-95758000D01*
X108490000Y-113633000D02*
X108490000Y-124460000D01*
X109689900Y-112433100D02*
X108490000Y-113633000D01*
X109689900Y-112433100D02*
X110998000Y-111125000D01*
X105990000Y-113466000D02*
X105990000Y-124460000D01*
X106537760Y-112918240D02*
X105990000Y-113466000D01*
X106537760Y-112918240D02*
X109728000Y-109728000D01*
X105791000Y-108458000D02*
X105791000Y-106553000D01*
X105791000Y-106553000D02*
X104394000Y-105156000D01*
X103490000Y-110759000D02*
X103490000Y-124460000D01*
X104686100Y-109562900D02*
X103490000Y-110759000D01*
X104686100Y-109562900D02*
X105791000Y-108458000D01*
X100990000Y-111100000D02*
X100990000Y-124460000D01*
X102219461Y-109870539D02*
X100990000Y-111100000D01*
X102219461Y-109870539D02*
X104394000Y-107696000D01*
X137668000Y-94488000D02*
X137668000Y-107467420D01*
X137668000Y-107467420D02*
X137388600Y-107746820D01*
X136208400Y-107784020D02*
X136245600Y-107746820D01*
X136208400Y-112522000D02*
X136208400Y-107784020D01*
X139042800Y-106860657D02*
X139042800Y-106321842D01*
X139042800Y-115751242D02*
X139042800Y-106860657D01*
X138538242Y-116255800D02*
X139042800Y-115751242D01*
X136208400Y-115890200D02*
X136574000Y-116255800D01*
X136208400Y-115062000D02*
X136208400Y-115890200D01*
X136574000Y-116255800D02*
X138538242Y-116255800D01*
X140208000Y-104952800D02*
X140208000Y-105587800D01*
X140208000Y-94488000D02*
X140208000Y-104952800D01*
G36*
X152044400Y-107086400D02*
X146913600Y-107086400D01*
X146913600Y-99161600D01*
X152044400Y-99161600D01*
X152044400Y-107086400D01*
X152044400Y-107086400D01*
G37*
X152044400Y-107086400D02*
X146913600Y-107086400D01*
X146913600Y-99161600D01*
X152044400Y-99161600D01*
X152044400Y-107086400D01*
G36*
X186715400Y-116484400D02*
X185394600Y-116484400D01*
X185394600Y-109067600D01*
X186715400Y-109067600D01*
X186715400Y-116484400D01*
X186715400Y-116484400D01*
G37*
X186715400Y-116484400D02*
X185394600Y-116484400D01*
X185394600Y-109067600D01*
X186715400Y-109067600D01*
X186715400Y-116484400D01*
M02*
